<svg xmlns="http://www.w3.org/2000/svg" zoomAndPan="magnify" viewBox="0 0 112.5 112.5" preserveAspectRatio="xMidYMid meet" version="1.0">
  <defs>
    <clipPath id="emlWhU6bx2K5a">
      <path d="M0 26.578h112.004v59.25H0zm0 0" clip-rule="nonzero"/>
    </clipPath>
  </defs>
  <g clip-path="url(#emlWhU6bx2K5a)">
    <path fill="#000" d="M112.445 31.227v-4.649H.055v31.957h112.39v-4.648H44.941V49.44h67.504v-4.648H44.941v-4.445h67.504v-4.664H44.941v-4.457zM4.97 56.84l-1.098-.8-1.101.8.421-1.3-1.101-.802h1.36l.421-1.3.418 1.3h1.36l-1.102.801zm-.422-7.711l.422 1.3-1.098-.8-1.101.8.421-1.3-1.101-.8h1.36l.421-1.302.418 1.301h1.36zm0-6.41l.422 1.3-1.098-.8-1.101.8.421-1.3-1.101-.801h1.36l.421-1.3.418 1.3h1.36zm0-6.399l.422 1.305-1.098-.8-1.101.8.421-1.305-1.101-.812h1.36l.421-1.301.418 1.3h1.36zm0-6.41l.422 1.305-1.098-.8-1.101.8.421-1.305-1.101-.797h1.36l.421-1.316.418 1.3h1.36zm4.129 23.8l-1.102-.8-1.097.8.418-1.3-1.098-.8h1.36l.417-1.301.422 1.3h1.356l-1.098.801zM8.254 46l.422 1.3-1.102-.8-1.097.8.418-1.3-1.098-.8h1.36l.417-1.302.422 1.301h1.356zm0-6.398l.422 1.3-1.102-.8-1.097.8.418-1.3-1.098-.801h1.36l.417-1.301.422 1.3h1.356zm0-6.41l.422 1.3-1.102-.8-1.097.8.418-1.3-1.098-.801h1.36l.417-1.301.422 1.3h1.356zm4.113 23.648l-1.101-.8-1.098.8.422-1.3-1.102-.802h1.36l.418-1.3.421 1.3h1.36l-1.102.801zm-.422-7.711l.422 1.3-1.101-.8-1.098.8.422-1.3-1.102-.8h1.36l.418-1.302.421 1.301h1.36zm0-6.41l.422 1.3-1.101-.8-1.098.8.422-1.3-1.102-.801h1.36l.418-1.3.421 1.3h1.36zm0-6.399l.422 1.305-1.101-.8-1.098.8.422-1.305-1.102-.797h1.36l.418-1.3.421 1.3h1.36zm0-6.41l.422 1.305-1.101-.8-1.098.8.422-1.305-1.102-.797h1.36l.418-1.316.421 1.3h1.36zm4.223 23.8l-1.102-.8-1.097.8.422-1.3-1.102-.8h1.36l.417-1.301.422 1.3h1.36l-1.102.801zM15.746 46l.422 1.3-1.102-.8-1.097.8.422-1.3-1.102-.8h1.36l.417-1.302.422 1.301h1.36zm0-6.398l.422 1.3-1.102-.8-1.097.8.422-1.3-1.102-.801h1.36l.417-1.301.422 1.3h1.36zm0-6.41l.422 1.3-1.102-.8-1.097.8.422-1.3-1.102-.801h1.36l.417-1.301.422 1.3h1.36zM19.97 56.84l-1.102-.8-1.097.8.421-1.3-1.101-.802h1.36l.417-1.3.422 1.3h1.356l-1.098.801zm-.422-7.711l.422 1.3-1.102-.8-1.097.8.421-1.3-1.101-.8h1.36l.417-1.302.422 1.301h1.356zm0-6.41l.422 1.3-1.102-.8-1.097.8.421-1.3-1.101-.801h1.36l.417-1.3.422 1.3h1.356zm0-6.399l.422 1.305-1.102-.8-1.097.8.421-1.305-1.101-.797h1.36l.417-1.3.422 1.3h1.356zm0-6.41l.422 1.305-1.102-.8-1.097.8.421-1.305-1.101-.797h1.36l.417-1.3.422 1.3h1.356zm4.125 23.8l-1.098-.8-1.101.8.422-1.3-1.098-.8h1.355l.422-1.301.422 1.3h1.356l-1.098.801zM23.254 46l.418 1.3-1.098-.8-1.101.8.422-1.3-1.098-.8h1.355l.422-1.302.422 1.301h1.356zm0-6.398l.418 1.3-1.098-.8-1.101.8.422-1.3-1.098-.801h1.355l.422-1.301.422 1.3h1.356zm0-6.41l.418 1.3-1.098-.8-1.101.8.422-1.3-1.098-.801h1.355l.422-1.301.422 1.3h1.356zm4.164 23.648l-1.098-.8-1.097.8.418-1.3-1.098-.802h1.355l.422-1.3.422 1.3h1.356L27 55.54zM27 49.129l.418 1.3-1.098-.8-1.097.8.418-1.3-1.098-.8h1.355l.422-1.302.422 1.301h1.356zm0-6.41l.418 1.3-1.098-.8-1.097.8.418-1.3-1.098-.801h1.355l.422-1.3.422 1.3h1.356zm0-6.399l.418 1.305-1.098-.8-1.097.8.418-1.305-1.098-.797h1.355l.422-1.3.422 1.3h1.356zm0-6.41l.418 1.305-1.098-.8-1.097.8.418-1.305-1.098-.797h1.355l.422-1.3.422 1.3h1.356zm4.164 23.8l-1.098-.8-1.097.8.418-1.3-1.098-.8h1.356l.421-1.301.422 1.3h1.356l-1.098.801zM30.746 46l.418 1.3-1.098-.8-1.097.813.418-1.301-1.098-.801h1.356l.421-1.3.422 1.3h1.356zm0-6.398l.418 1.3-1.098-.8-1.097.8.418-1.3-1.098-.801h1.356l.421-1.301.422 1.3h1.356zm0-6.41l.418 1.3-1.098-.8-1.097.8.418-1.3-1.098-.801h1.356l.421-1.301.422 1.3h1.356zm4.125 23.648l-1.098-.8-1.101.8.422-1.3-1.102-.802h1.36l.421-1.3.418 1.3h1.36l-1.102.801zm-.422-7.711l.422 1.3-1.098-.8-1.101.8.422-1.3-1.102-.8h1.36l.421-1.302.418 1.301h1.36zm0-6.41l.422 1.3-1.098-.8-1.101.8.422-1.3-1.102-.801h1.36l.421-1.3.418 1.3h1.36zm0-6.399l.422 1.305-1.098-.8-1.101.8.422-1.305-1.102-.797h1.36l.421-1.3.418 1.3h1.36zm0-6.41l.422 1.305-1.098-.8-1.101.8.422-1.305-1.102-.797h1.36l.421-1.3.418 1.3h1.36zm4.223 23.8l-1.098-.8-1.101.8.422-1.3-1.102-.8h1.36l.421-1.301.418 1.3h1.36l-1.102.801zM38.25 46l.422 1.3-1.098-.8-1.101.8.422-1.3-1.102-.8h1.36l.421-1.302.418 1.301h1.36zm0-6.398l.422 1.3-1.098-.8-1.101.8.422-1.3-1.102-.801h1.36l.421-1.301.418 1.3h1.36zm0-6.41l.422 1.3-1.098-.8-1.101.8.422-1.3-1.102-.801h1.36l.421-1.301.418 1.3h1.36zm4.223 23.648l-1.098-.8-1.102.8.422-1.3-1.101-.802h1.36l.421-1.3.418 1.3h1.36l-1.102.801zm-.422-7.711l.422 1.3-1.098-.8-1.102.8.422-1.3-1.101-.8h1.36l.421-1.302.418 1.301h1.36zm0-6.41l.422 1.3-1.098-.8-1.102.8.422-1.3-1.101-.801h1.36l.421-1.3.418 1.3h1.36zm0-6.399l.422 1.305-1.098-.8-1.102.8.422-1.305-1.101-.797h1.36l.421-1.3.418 1.3h1.36zm0-6.41l.422 1.305-1.098-.8-1.102.8.422-1.305-1.101-.797h1.36l.421-1.3.418 1.3h1.36zM.055 62.98h112.39v4.649H.055zm0 9.106h112.39v4.648H.055zm0 9.094h112.39v4.648H.055zm0 0" fill-opacity="1" fill-rule="nonzero"/>
  </g>
</svg>
