<svg xmlns="http://www.w3.org/2000/svg" zoomAndPan="magnify" viewBox="0 0 37.5 37.5" preserveAspectRatio="xMidYMid meet" version="1.0">
  <path fill="#000" d="M32.23 18.746c0 7.453-6.039 13.492-13.492 13.492-7.453 0-13.492-6.039-13.492-13.492 0-7.453 6.04-13.492 13.492-13.492 7.453 0 13.492 6.039 13.492 13.492zm0 0" fill-opacity="1" fill-rule="nonzero"/>
  <path fill="#fff" d="M19.094 11.824c.648 0 1.234.38 1.304 1.09v11.68c-.07.691-.656 1.004-1.222 1.004-.586 0-1.176-.313-1.176-1.004V16.12l-.898 1.195c-.254.356-.59.504-.965.504-.754 0-1.383-.984-.903-1.738l2.79-3.797a1.5 1.5 0 011.07-.46zm0 0" fill-opacity="1" fill-rule="nonzero"/>
</svg>
