<svg xmlns="http://www.w3.org/2000/svg" zoomAndPan="magnify" viewBox="0 0 37.5 37.5" preserveAspectRatio="xMidYMid meet" version="1.0">
  <path fill="#000" d="M32.242 18.758c0 7.453-6.039 13.496-13.492 13.496-7.453 0-13.492-6.043-13.492-13.496 0-7.45 6.039-13.492 13.492-13.492 7.453 0 13.492 6.043 13.492 13.492zm0 0" fill-opacity="1" fill-rule="nonzero"/>
  <path fill="#fff" d="M19.148 23.414h3.57c.825 0 1.266.547 1.266 1.074 0 .528-.402 1.059-1.246 1.059h-7.832c-.738-.067-1.222-.594-1.222-1.184 0-.297.168-.633.484-.886l5.89-4.625c.887-.633 1.395-1.711 1.223-2.766-.168-1.418-1.246-2.094-2.511-2.094-1.266 0-2.282.742-2.532 1.965-.086.656-.613.973-1.164.973-.633 0-1.285-.465-1.203-1.27.34-2.617 2.367-3.777 4.899-3.777 2.406 0 4.625 1.433 4.878 3.906.23 2.027-.675 3.547-2.09 4.668l-3.886 3.02 1.476-.063zm0 0" fill-opacity="1" fill-rule="nonzero"/>
</svg>
