<svg xmlns="http://www.w3.org/2000/svg" zoomAndPan="magnify" viewBox="0 0 37.5 37.5" preserveAspectRatio="xMidYMid meet" version="1.0">
  <path fill="#000" d="M32.14 18.75c0 7.453-6.042 13.492-13.495 13.492-7.45 0-13.493-6.039-13.493-13.492 0-7.453 6.043-13.492 13.493-13.492 7.453 0 13.496 6.039 13.496 13.492zm0 0" fill-opacity="1" fill-rule="nonzero"/>
  <path fill="#fff" d="M15.875 21.398c.21 1.895 1.602 2.211 2.844 2.211 1.535 0 2.566-1.18 2.566-2.8 0-1.391-.906-2.442-2.105-2.442-.317 0-.504.043-.758.188a1.201 1.201 0 01-1.871-.989c0-.293.125-.59.398-.863l2.758-2.547h-4.59c-.777 0-1.137-.527-1.137-1.031 0-.527.36-1.055 1.137-1.055h7.031c.715 0 1.305.508 1.305 1.117 0 .231-.23.633-.504.907-.906.82-1.875 1.664-2.82 2.484 2.336.211 3.535 2.168 3.535 4.211 0 2.883-1.98 4.902-4.926 4.902-2.59 0-4.84-1.03-5.18-4 .024-.691.633-1.199 1.204-1.199.523 0 1.093.336 1.113.906zm0 0" fill-opacity="1" fill-rule="nonzero"/>
</svg>
