<svg fill="none" xmlns="http://www.w3.org/2000/svg" viewBox="0 0 320 88">
  <path d="M50.423 0c19.84 0 26.415 10.057 26.415 24 0 13.829-6.576 24-26.415 24H25.356V0h25.067zm.056 32.286c3.99 0 7.812-1.715 7.812-8.286 0-6.686-3.822-8.343-7.812-8.343h-6.576v16.629h6.576zM79.627 48V0h44.401v14.914h-25.91v3.2h24.898v11.829H98.118v3.143h25.91V48h-44.4zm62.221 0L125.099 0h19.053l9.723 30.4h1.855L165.397 0h19.053l-16.749 48h-25.853z" fill="#fff"/>
  <path d="M240.982 0l-19.221 33.429V48h-18.435V33.257L184.161 0h19.334l8.43 15.771h1.293L221.705 0h19.277zm1.393 48V0h21.133l11.521 21.714h1.63V0h17.985v48h-20.626l-11.972-21.714h-1.686V48h-17.985zM50.087 82v-5.933l.12.833-4.812-6.8h2.21l3.672 5.27-.425-.051 3.315-5.219h2.108l-4.607 6.987.255-1.156V82h-1.836zm10.235.17c-.872 0-1.654-.198-2.346-.595a4.508 4.508 0 01-1.615-1.649c-.396-.703-.595-1.502-.595-2.397 0-.895.199-1.689.595-2.38a4.341 4.341 0 011.615-1.649c.692-.408 1.474-.612 2.346-.612.862 0 1.632.204 2.312.612a4.303 4.303 0 011.632 1.649c.397.691.595 1.485.595 2.38 0 .895-.198 1.694-.595 2.397a4.465 4.465 0 01-1.632 1.649c-.68.397-1.45.595-2.312.595zm0-1.598c.533 0 1.01-.13 1.428-.391a2.85 2.85 0 00.986-1.088 3.23 3.23 0 00.34-1.564c.012-.59-.102-1.11-.34-1.564a2.698 2.698 0 00-.986-1.088 2.648 2.648 0 00-1.428-.391 2.695 2.695 0 00-2.431 1.496c-.238.453-.35.969-.34 1.547-.01.578.102 1.1.34 1.564.238.453.567.816.986 1.088.431.26.913.391 1.445.391zm9.575 1.598c-.634 0-1.19-.147-1.666-.442a2.983 2.983 0 01-1.088-1.241c-.249-.533-.374-1.167-.374-1.904v-5.508h1.751v5.032c0 .521.08.975.238 1.36.17.374.408.663.714.867.318.204.697.306 1.14.306.328 0 .628-.051.9-.153.272-.113.505-.266.697-.459.204-.193.363-.425.476-.697.114-.272.17-.567.17-.884v-5.372h1.751V82h-1.75v-1.87l.305-.204c-.136.42-.368.799-.697 1.139-.317.34-.697.612-1.139.816a3.534 3.534 0 01-1.428.289zm7.165-.17v-8.925h1.768v2.805l-.17-.68c.125-.43.335-.822.63-1.173a3.614 3.614 0 011.036-.833 2.646 2.646 0 011.224-.306c.193 0 .374.017.544.051.182.034.323.074.425.119l-.459 1.904a2.433 2.433 0 00-.459-.136 1.727 1.727 0 00-.476-.068c-.306 0-.6.062-.884.187a2.25 2.25 0 00-.73.493 2.372 2.372 0 00-.494.731 2.136 2.136 0 00-.187.901V82h-1.768zm12.59 0v-9.928c0-.51.114-.963.34-1.36.227-.397.539-.708.935-.935.397-.227.856-.34 1.377-.34.363 0 .703.068 1.02.204.318.136.573.317.766.544l-.596 1.343a1.767 1.767 0 00-.493-.323 1.046 1.046 0 00-.493-.136c-.237 0-.441.04-.611.119a.695.695 0 00-.358.34 1.14 1.14 0 00-.118.544V82h-1.768zm-1.427-7.157v-1.615h5.303v1.615h-5.303zM95.357 82v-8.925h1.768v2.805l-.17-.68c.125-.43.335-.822.63-1.173a3.615 3.615 0 011.036-.833 2.646 2.646 0 011.224-.306c.193 0 .374.017.544.051.182.034.323.074.425.119l-.459 1.904a2.436 2.436 0 00-.459-.136 1.727 1.727 0 00-.476-.068c-.306 0-.6.062-.884.187a2.25 2.25 0 00-.73.493 2.374 2.374 0 00-.494.731 2.136 2.136 0 00-.187.901V82h-1.768zm7.146 0v-8.925h1.751V82h-1.751zm.85-10.897c-.374 0-.663-.096-.867-.289-.204-.193-.306-.465-.306-.816 0-.329.102-.595.306-.799.215-.204.504-.306.867-.306.374 0 .663.096.867.289.204.193.306.465.306.816 0 .329-.108.595-.323.799-.204.204-.488.306-.85.306zm7.757 11.067c-.918 0-1.734-.193-2.448-.578a4.474 4.474 0 01-1.666-1.615c-.396-.68-.595-1.462-.595-2.346 0-.703.114-1.343.34-1.921a4.603 4.603 0 01.935-1.496c.408-.43.89-.76 1.445-.986a4.695 4.695 0 011.836-.357 3.85 3.85 0 011.615.34c.499.215.93.516 1.292.901a3.8 3.8 0 01.85 1.377c.204.521.301 1.094.289 1.717l-.017.748h-7.293l-.391-1.394h6.171l-.255.289v-.408a1.964 1.964 0 00-.374-1.003 2.305 2.305 0 00-.816-.697 2.293 2.293 0 00-1.071-.255c-.612 0-1.127.119-1.547.357a2.198 2.198 0 00-.952 1.02c-.215.442-.323.992-.323 1.649 0 .623.131 1.167.391 1.632.261.453.629.805 1.105 1.054.476.25 1.026.374 1.649.374.442 0 .85-.074 1.224-.221.386-.147.799-.414 1.241-.799l.884 1.241a3.97 3.97 0 01-1.003.714 6.29 6.29 0 01-1.241.493c-.43.113-.855.17-1.275.17zm5.796-.17v-8.925h1.751v1.836l-.306.204a2.5 2.5 0 01.663-1.088c.329-.34.72-.612 1.173-.816a3.215 3.215 0 011.394-.323c.68 0 1.247.136 1.7.408.453.26.793.663 1.02 1.207.227.544.34 1.23.34 2.057V82h-1.751v-5.321c0-.51-.068-.93-.204-1.258-.136-.34-.346-.584-.629-.731-.283-.159-.635-.227-1.054-.204-.34 0-.652.057-.935.17-.283.102-.533.25-.748.442-.204.193-.368.42-.493.68-.113.25-.17.521-.17.816V82h-1.751zm13.833.17c-.816 0-1.547-.198-2.193-.595a4.429 4.429 0 01-1.513-1.649c-.374-.703-.561-1.502-.561-2.397 0-.895.182-1.689.544-2.38a4.263 4.263 0 011.513-1.649c.635-.408 1.355-.612 2.159-.612.442 0 .867.074 1.275.221.42.136.794.329 1.122.578.329.238.584.504.765.799.193.283.289.572.289.867l-.51.034V69.42h1.751V82h-1.751v-2.125h.34c0 .272-.09.544-.272.816-.181.26-.425.504-.731.731a3.58 3.58 0 01-1.037.544 3.549 3.549 0 01-1.19.204zm.238-1.513c.533 0 1.003-.136 1.411-.408.408-.272.726-.64.952-1.105.238-.476.357-1.014.357-1.615 0-.6-.119-1.133-.357-1.598a2.715 2.715 0 00-.952-1.122 2.484 2.484 0 00-1.411-.408c-.532 0-1.003.136-1.411.408a2.844 2.844 0 00-.969 1.122c-.226.465-.34.997-.34 1.598 0 .6.114 1.139.34 1.615.238.465.561.833.969 1.105.408.272.879.408 1.411.408zM137.825 82V69.42h1.751V82h-1.751zm5.479 3.91l1.802-4.165.017 1.394-4.454-10.064h2.04l2.788 6.562c.057.113.125.289.204.527.08.227.148.453.204.68l-.442.102c.091-.238.176-.476.255-.714.091-.238.176-.476.255-.714l2.329-6.443h2.074L146.704 82l-1.513 3.91h-1.887zm17.142 0a6.191 6.191 0 01-1.904-.306c-.623-.193-1.128-.448-1.513-.765l.646-1.36c.227.17.493.317.799.442.306.136.629.238.969.306.34.08.674.119 1.003.119.623 0 1.145-.102 1.564-.306.419-.204.737-.504.952-.901.215-.397.323-.89.323-1.479v-1.717l.187.119c-.057.351-.244.691-.561 1.02a3.579 3.579 0 01-1.156.782 3.521 3.521 0 01-1.428.306c-.85 0-1.609-.198-2.278-.595a4.462 4.462 0 01-1.564-1.649c-.385-.703-.578-1.502-.578-2.397 0-.895.187-1.689.561-2.38a4.297 4.297 0 011.564-1.649 4.225 4.225 0 012.244-.612c.34 0 .669.045.986.136.317.08.612.198.884.357.272.147.516.312.731.493.215.181.391.374.527.578.136.204.221.397.255.578l-.374.136v-2.091h1.751v8.381c0 .714-.108 1.343-.323 1.887a3.573 3.573 0 01-.901 1.394 3.793 3.793 0 01-1.445.867c-.567.204-1.207.306-1.921.306zm.068-5.355a2.8 2.8 0 001.479-.391c.431-.26.765-.618 1.003-1.071.238-.453.357-.975.357-1.564 0-.59-.125-1.11-.374-1.564a2.658 2.658 0 00-1.003-1.088c-.419-.26-.907-.391-1.462-.391a2.68 2.68 0 00-1.462.408c-.419.26-.754.623-1.003 1.088-.238.453-.357.969-.357 1.547s.119 1.1.357 1.564c.249.453.584.81 1.003 1.071.431.26.918.391 1.462.391zM167.491 82v-8.925h1.768v2.805l-.17-.68a3.19 3.19 0 01.629-1.173 3.619 3.619 0 011.037-.833 2.648 2.648 0 011.224-.306c.193 0 .374.017.544.051.181.034.323.074.425.119l-.459 1.904a2.433 2.433 0 00-.459-.136 1.727 1.727 0 00-.476-.068 2.17 2.17 0 00-.884.187 2.247 2.247 0 00-.731.493 2.38 2.38 0 00-.493.731 2.132 2.132 0 00-.187.901V82h-1.768zm10.487.17c-.873 0-1.655-.198-2.346-.595a4.502 4.502 0 01-1.615-1.649c-.397-.703-.595-1.502-.595-2.397 0-.895.198-1.689.595-2.38a4.336 4.336 0 011.615-1.649c.691-.408 1.473-.612 2.346-.612.861 0 1.632.204 2.312.612a4.309 4.309 0 011.632 1.649c.396.691.595 1.485.595 2.38 0 .895-.199 1.694-.595 2.397a4.471 4.471 0 01-1.632 1.649c-.68.397-1.451.595-2.312.595zm0-1.598a2.65 2.65 0 001.428-.391c.419-.272.748-.635.986-1.088.238-.465.351-.986.34-1.564.011-.59-.102-1.11-.34-1.564a2.701 2.701 0 00-.986-1.088 2.652 2.652 0 00-1.428-.391 2.694 2.694 0 00-2.431 1.496c-.238.453-.352.969-.34 1.547a3.23 3.23 0 00.34 1.564c.238.453.566.816.986 1.088.43.26.912.391 1.445.391zM186.286 82l-3.043-8.925 1.768-.017 2.176 6.681-.391-.034 2.363-5.219h1.054l2.38 5.236-.459.034 2.193-6.681h1.768L193.086 82h-1.207l-2.482-5.678.391.051L187.476 82h-1.19zm13.355 0V70.797h1.751V82h-1.751zm-1.853-7.225v-1.7h5.678v1.7h-5.678zM205.06 82V69.42h1.751v5.491l-.306.204a2.52 2.52 0 01.663-1.088c.329-.34.72-.612 1.173-.816a3.218 3.218 0 011.394-.323c.68 0 1.247.136 1.7.408.454.26.794.663 1.02 1.207.227.544.34 1.23.34 2.057V82h-1.751v-5.321c0-.51-.068-.93-.204-1.258-.136-.34-.345-.584-.629-.731-.283-.159-.634-.227-1.054-.204-.34 0-.651.057-.935.17-.283.102-.532.25-.748.442-.204.193-.368.42-.493.68-.113.25-.17.521-.17.816V82h-1.751zm14.875 0V69.42h1.751v5.491l-.306.204a2.52 2.52 0 01.663-1.088c.329-.34.72-.612 1.173-.816a3.218 3.218 0 011.394-.323c.68 0 1.247.136 1.7.408.454.26.794.663 1.02 1.207.227.544.34 1.23.34 2.057V82h-1.751v-5.321c0-.51-.068-.93-.204-1.258-.136-.34-.345-.584-.629-.731-.283-.159-.634-.227-1.054-.204-.34 0-.651.057-.935.17-.283.102-.532.25-.748.442-.204.193-.368.42-.493.68-.113.25-.17.521-.17.816V82h-1.751zm13.545.17a3.57 3.57 0 01-2.023-.612c-.601-.408-1.083-.963-1.445-1.666-.363-.703-.544-1.496-.544-2.38 0-.895.181-1.689.544-2.38.374-.703.872-1.252 1.496-1.649a3.926 3.926 0 012.125-.595c.464 0 .889.068 1.275.204.385.136.719.329 1.003.578.294.238.532.516.714.833.192.317.311.657.357 1.02l-.391-.136v-2.312h1.768V82h-1.768v-2.125l.408-.119c-.068.306-.21.606-.425.901a3.24 3.24 0 01-.799.765 4.16 4.16 0 01-1.071.544 3.656 3.656 0 01-1.224.204zm.459-1.615c.532 0 1.003-.13 1.411-.391a2.65 2.65 0 00.952-1.071c.238-.465.357-.992.357-1.581 0-.578-.119-1.094-.357-1.547a2.65 2.65 0 00-.952-1.071 2.565 2.565 0 00-1.411-.391c-.522 0-.986.13-1.394.391-.397.26-.714.618-.952 1.071-.227.453-.34.969-.34 1.547 0 .59.113 1.116.34 1.581.238.453.555.81.952 1.071.408.26.872.391 1.394.391zm10.656 1.615c-.828 0-1.57-.204-2.227-.612a4.47 4.47 0 01-1.547-1.666c-.374-.703-.561-1.49-.561-2.363s.187-1.66.561-2.363a4.47 4.47 0 011.547-1.666c.657-.408 1.399-.612 2.227-.612.793 0 1.513.164 2.159.493.657.317 1.156.754 1.496 1.309l-.969 1.19a3.208 3.208 0 00-.697-.714 3.774 3.774 0 00-.901-.51 2.51 2.51 0 00-.918-.187c-.544 0-1.032.136-1.462.408-.42.26-.754.623-1.003 1.088-.25.465-.374.986-.374 1.564 0 .578.13 1.1.391 1.564.26.453.606.816 1.037 1.088.43.272.906.408 1.428.408.306 0 .6-.051.884-.153.294-.102.578-.255.85-.459a4.32 4.32 0 00.765-.748l.969 1.19c-.363.51-.884.93-1.564 1.258a4.685 4.685 0 01-2.091.493zm6.904-2.958l-.085-1.904 4.267-4.233h2.363l-6.545 6.137zM249.901 82V69.42h1.751V82h-1.751zm6.018 0l-3.366-3.927 1.241-1.139L258.163 82h-2.244zm7.428.17c-.918 0-1.734-.193-2.448-.578a4.467 4.467 0 01-1.666-1.615c-.397-.68-.595-1.462-.595-2.346 0-.703.113-1.343.34-1.921a4.57 4.57 0 01.935-1.496c.408-.43.889-.76 1.445-.986a4.688 4.688 0 011.836-.357c.578 0 1.116.113 1.615.34.498.215.929.516 1.292.901.374.385.657.844.85 1.377.204.521.3 1.094.289 1.717l-.017.748h-7.293l-.391-1.394h6.171l-.255.289v-.408a1.973 1.973 0 00-.374-1.003 2.322 2.322 0 00-1.887-.952c-.612 0-1.128.119-1.547.357a2.19 2.19 0 00-.952 1.02c-.216.442-.323.992-.323 1.649 0 .623.13 1.167.391 1.632.26.453.629.805 1.105 1.054.476.25 1.025.374 1.649.374.442 0 .85-.074 1.224-.221.385-.147.799-.414 1.241-.799l.884 1.241c-.272.272-.607.51-1.003.714a6.315 6.315 0 01-1.241.493 5 5 0 01-1.275.17zm5.795-.17v-8.925h1.768v2.805l-.17-.68c.125-.43.335-.822.629-1.173a3.619 3.619 0 011.037-.833 2.648 2.648 0 011.224-.306c.193 0 .374.017.544.051.182.034.323.074.425.119l-.459 1.904a2.433 2.433 0 00-.459-.136 1.721 1.721 0 00-.476-.068c-.306 0-.6.062-.884.187a2.258 2.258 0 00-.731.493 2.38 2.38 0 00-.493.731 2.147 2.147 0 00-.187.901V82h-1.768z" fill="#fff"/>
</svg>
