<svg fill="none" xmlns="http://www.w3.org/2000/svg" viewBox="0 0 578 88">
  <g filter="url(#Q2q0hY9Pra8ma)">
    <g clip-path="url(#Q2q0hY9Pra8mb)">
      <rect x="8" y="4" width="562" height="76" rx="15" fill="#fff"/>
      <rect x="28" y="25" width="36" height="36" rx="7" fill="#000"/>
      <g clip-path="url(#Q2q0hY9Pra8mc)">
        <mask id="Q2q0hY9Pra8md" style="mask-type:luminance" maskUnits="userSpaceOnUse" x="31" y="27" width="30" height="35">
          <path d="M31 27h30v34.286H31V27z" fill="#fff"/>
        </mask>
        <g mask="url(#Q2q0hY9Pra8md)">
          <path d="M46 44.143a8.57 8.57 0 008.571-8.572A8.57 8.57 0 0046 27a8.57 8.57 0 00-8.571 8.571A8.57 8.57 0 0046 44.143zm6 2.143h-1.118A11.67 11.67 0 0146 47.357c-1.741 0-3.388-.388-4.882-1.071H40c-4.969 0-9 4.031-9 9v2.785a3.215 3.215 0 003.214 3.215h23.572A3.215 3.215 0 0061 58.07v-2.785c0-4.969-4.031-9-9-9z" fill="#fff"/>
        </g>
      </g>
      <path d="M75.41 37.364h1.68l3.956 9.659h.136l3.954-9.66h1.682V49H85.5v-8.84h-.114L81.75 49h-1.273l-3.636-8.84h-.114V49H75.41V37.364zm16.62 11.84a3.546 3.546 0 01-1.506-.312 2.584 2.584 0 01-1.074-.915c-.265-.401-.397-.886-.397-1.454 0-.5.098-.906.295-1.216.197-.315.46-.56.79-.739a4.15 4.15 0 011.09-.398c.402-.09.806-.162 1.21-.215.531-.069.961-.12 1.29-.154.334-.038.577-.1.728-.187.155-.087.233-.239.233-.455v-.045c0-.561-.153-.997-.46-1.307-.303-.31-.764-.466-1.381-.466-.64 0-1.142.14-1.506.42-.363.28-.619.58-.767.898l-1.272-.454c.227-.53.53-.944.909-1.24a3.411 3.411 0 011.25-.624 5.191 5.191 0 011.34-.182c.28 0 .603.034.966.102a3.09 3.09 0 011.063.404c.345.204.63.513.858.926.227.413.34.966.34 1.659V49h-1.34v-1.182h-.068a2.36 2.36 0 01-.455.608c-.212.216-.494.4-.846.551-.353.152-.783.228-1.29.228zM92.234 48c.53 0 .978-.104 1.341-.313a2.127 2.127 0 001.114-1.846v-1.227c-.057.068-.182.13-.375.187-.19.053-.41.1-.66.142a29.81 29.81 0 01-1.283.17c-.349.046-.674.12-.977.222a1.68 1.68 0 00-.728.45c-.182.196-.272.465-.272.806 0 .466.172.818.516 1.057.349.235.79.352 1.324.352zm7.493-2.182l-.023-1.659h.273l3.818-3.886h1.66l-4.069 4.113h-.113l-1.546 1.432zM98.477 49V37.364h1.341V49h-1.34zm5.546 0l-3.409-4.318.954-.932 4.159 5.25h-1.704zm6.457.182c-.841 0-1.566-.186-2.176-.557a3.733 3.733 0 01-1.403-1.568c-.326-.674-.489-1.459-.489-2.352 0-.894.163-1.682.489-2.364.329-.686.787-1.22 1.375-1.602.59-.387 1.28-.58 2.068-.58.454 0 .903.076 1.346.227.444.152.847.398 1.211.739.363.337.653.784.869 1.34.216.558.324 1.243.324 2.058v.568h-6.728v-1.16h5.364c0-.492-.098-.931-.295-1.317a2.232 2.232 0 00-.83-.915c-.356-.224-.776-.335-1.261-.335-.534 0-.996.132-1.387.397a2.623 2.623 0 00-.892 1.023c-.208.42-.312.871-.312 1.352v.773c0 .66.113 1.218.341 1.676.231.455.551.801.96 1.04.409.235.884.352 1.426.352.352 0 .671-.049.955-.147.288-.103.536-.254.744-.455.208-.205.369-.458.483-.761l1.295.363a2.87 2.87 0 01-.687 1.16c-.322.329-.72.587-1.193.772a4.43 4.43 0 01-1.597.273zM120.634 49v-8.727h1.295v1.363h.114a2.19 2.19 0 01.88-1.085c.406-.261.892-.392 1.461-.392.575 0 1.054.13 1.437.392.386.258.688.62.903 1.085h.091c.224-.45.559-.808 1.006-1.074.447-.268.983-.403 1.608-.403.78 0 1.419.244 1.915.733.496.485.744 1.24.744 2.267V49h-1.341v-5.84c0-.645-.176-1.105-.528-1.382a1.958 1.958 0 00-1.245-.414c-.613 0-1.089.185-1.426.556-.337.368-.505.834-.505 1.398V49h-1.364v-5.977c0-.497-.161-.896-.483-1.2-.322-.306-.737-.46-1.244-.46a1.84 1.84 0 00-.978.279 2.107 2.107 0 00-.727.773 2.28 2.28 0 00-.273 1.13V49h-1.34zm17.565.182c-.841 0-1.566-.186-2.176-.557a3.742 3.742 0 01-1.404-1.568c-.325-.674-.488-1.459-.488-2.352 0-.894.163-1.682.488-2.364.33-.686.788-1.22 1.375-1.602.591-.387 1.281-.58 2.068-.58.455 0 .904.076 1.347.227.443.152.847.398 1.21.739.364.337.654.784.87 1.34.216.558.323 1.243.323 2.058v.568h-6.727v-1.16h5.364c0-.492-.099-.931-.296-1.317a2.223 2.223 0 00-.829-.915c-.356-.224-.777-.335-1.262-.335-.534 0-.996.132-1.386.397a2.615 2.615 0 00-.892 1.023c-.208.42-.312.871-.312 1.352v.773c0 .66.113 1.218.34 1.676.232.455.552.801.961 1.04.409.235.884.352 1.426.352.352 0 .67-.049.954-.147.288-.103.536-.254.745-.455.208-.205.369-.458.483-.761l1.295.363a2.87 2.87 0 01-.687 1.16 3.35 3.35 0 01-1.194.772 4.42 4.42 0 01-1.596.273zm12.721.023a3.543 3.543 0 01-1.505-.313 2.582 2.582 0 01-1.074-.915c-.265-.401-.398-.886-.398-1.454 0-.5.099-.906.296-1.216.197-.315.46-.56.789-.739a4.2 4.2 0 011.091-.398c.402-.09.805-.162 1.211-.215.53-.069.96-.12 1.289-.154.334-.038.576-.1.728-.187.155-.087.233-.239.233-.455v-.045c0-.561-.154-.997-.461-1.307-.303-.31-.763-.466-1.38-.466-.641 0-1.142.14-1.506.42-.364.28-.619.58-.767.898l-1.273-.454c.227-.53.53-.944.909-1.24.383-.298.8-.507 1.25-.624a5.196 5.196 0 011.341-.182c.28 0 .602.034.966.102.368.065.722.2 1.063.404.344.204.63.513.858.926.227.413.34.966.34 1.659V49h-1.34v-1.182h-.069c-.091.19-.242.392-.454.608-.212.216-.494.4-.847.551-.352.152-.782.228-1.29.228zm.205-1.205c.53 0 .977-.104 1.341-.313.367-.208.644-.477.829-.806.19-.33.285-.676.285-1.04v-1.227c-.057.068-.182.13-.375.187-.19.053-.41.1-.66.142a29.56 29.56 0 01-1.284.17 5.19 5.19 0 00-.977.222 1.681 1.681 0 00-.727.45c-.182.196-.273.465-.273.806 0 .466.172.818.517 1.057.349.235.79.352 1.324.352zm14.629-7.727v1.136h-4.704v-1.136h4.704zM162.459 49v-9.932c0-.5.117-.916.352-1.25a2.19 2.19 0 01.915-.75 2.89 2.89 0 011.187-.25c.33 0 .599.027.807.08.209.053.364.102.466.147l-.386 1.16a6.673 6.673 0 00-.284-.086 1.727 1.727 0 00-.466-.05c-.443 0-.764.11-.961.334-.193.224-.289.552-.289.983V49h-1.341zm10.675-3.568v-5.16h1.34V49h-1.34v-1.477h-.091c-.205.443-.523.82-.955 1.13-.432.307-.977.46-1.636.46-.546 0-1.031-.119-1.455-.357-.424-.243-.757-.606-1-1.091-.242-.489-.363-1.104-.363-1.847v-5.545h1.34v5.454c0 .637.178 1.144.535 1.523.359.379.818.568 1.375.568a2.29 2.29 0 001.017-.255c.348-.171.64-.432.875-.785.238-.352.358-.8.358-1.346zm5.137-1.682V49h-1.341v-8.727h1.296v1.363h.113a2.5 2.5 0 01.932-1.068c.417-.273.955-.409 1.614-.409.591 0 1.108.121 1.551.364a2.45 2.45 0 011.034 1.09c.246.486.369 1.1.369 1.842V49h-1.34v-5.455c0-.685-.178-1.22-.535-1.602-.356-.386-.844-.58-1.465-.58a2.34 2.34 0 00-1.148.279 1.994 1.994 0 00-.79.813c-.193.356-.29.787-.29 1.295zm9.36 0V49h-1.341v-8.727h1.295v1.363h.114c.204-.443.515-.799.932-1.068.416-.273.954-.409 1.613-.409.591 0 1.108.121 1.551.364.444.238.788.602 1.035 1.09.246.486.369 1.1.369 1.842V49h-1.341v-5.455c0-.685-.178-1.22-.534-1.602-.356-.386-.845-.58-1.466-.58a2.34 2.34 0 00-1.148.279 2 2 0 00-.79.813c-.193.356-.289.787-.289 1.295zm11.677 5.432c-.841 0-1.566-.186-2.176-.557a3.733 3.733 0 01-1.403-1.568c-.326-.674-.489-1.459-.489-2.352 0-.894.163-1.682.489-2.364.329-.686.788-1.22 1.375-1.602.591-.387 1.28-.58 2.068-.58.454 0 .903.076 1.346.227.444.152.847.398 1.211.739.363.337.653.784.869 1.34.216.558.324 1.243.324 2.058v.568h-6.727v-1.16h5.363c0-.492-.098-.931-.295-1.317a2.225 2.225 0 00-.83-.915c-.356-.224-.776-.335-1.261-.335-.534 0-.996.132-1.386.397a2.618 2.618 0 00-.893 1.023c-.208.42-.312.871-.312 1.352v.773c0 .66.114 1.218.341 1.676.231.455.551.801.96 1.04.409.235.885.352 1.426.352a2.9 2.9 0 00.955-.147c.288-.103.536-.254.744-.455.208-.205.369-.458.483-.761l1.296.363a2.88 2.88 0 01-.688 1.16c-.322.329-.72.587-1.193.772a4.43 4.43 0 01-1.597.273zm6.995-11.818V49h-1.341V37.364h1.341zm10.842 2.909v1.136h-4.705v-1.136h4.705zM213.849 49v-9.932c0-.5.118-.916.353-1.25a2.18 2.18 0 01.914-.75c.375-.166.771-.25 1.188-.25.33 0 .598.027.807.08.208.053.363.102.466.147l-.387 1.16a6.673 6.673 0 00-.284-.086 1.717 1.717 0 00-.466-.05c-.443 0-.763.11-.96.334-.193.224-.29.552-.29.983V49h-1.341zm8.361.182c-.788 0-1.479-.188-2.074-.563-.591-.375-1.053-.9-1.386-1.574-.33-.674-.494-1.462-.494-2.363 0-.91.164-1.703.494-2.38.333-.679.795-1.205 1.386-1.58.595-.375 1.286-.563 2.074-.563.788 0 1.478.188 2.068.563.595.375 1.057.901 1.387 1.58.333.677.5 1.47.5 2.38 0 .901-.167 1.69-.5 2.363-.33.675-.792 1.2-1.387 1.574-.59.375-1.28.563-2.068.563zm0-1.205c.599 0 1.091-.153 1.478-.46a2.71 2.71 0 00.857-1.21c.186-.5.279-1.042.279-1.625 0-.584-.093-1.127-.279-1.63a2.745 2.745 0 00-.857-1.222c-.387-.311-.879-.466-1.478-.466-.598 0-1.091.155-1.477.466-.386.31-.672.717-.858 1.221a4.672 4.672 0 00-.278 1.63c0 .584.092 1.126.278 1.626.186.5.472.903.858 1.21.386.307.879.46 1.477.46zM228.212 49v-8.727h1.295v1.318h.091c.159-.432.447-.782.864-1.051a2.54 2.54 0 011.409-.404c.098 0 .221.002.369.006s.26.01.335.017v1.364a3.926 3.926 0 00-.312-.051 3.08 3.08 0 00-.506-.04c-.424 0-.803.089-1.136.267a1.955 1.955 0 00-1.068 1.778V49h-1.341zm11.794-5.25V49h-1.341V37.364h1.341v4.272h.113c.205-.45.512-.808.921-1.074.413-.268.962-.403 1.648-.403.594 0 1.115.12 1.562.358a2.41 2.41 0 011.04 1.085c.25.485.375 1.103.375 1.853V49h-1.341v-5.455c0-.693-.18-1.229-.54-1.608-.356-.382-.85-.573-1.483-.573-.439 0-.833.092-1.182.278a2.04 2.04 0 00-.818.813c-.197.356-.295.787-.295 1.295zm11.907-3.477v1.136h-4.522v-1.136h4.522zm-3.204-2.091h1.341V46.5c0 .379.055.663.164.852.114.186.258.31.432.375.178.06.366.091.563.091.148 0 .269-.007.363-.023l.228-.045.272 1.205c-.09.034-.217.068-.38.102-.163.038-.37.057-.62.057-.378 0-.75-.082-1.113-.245a2.215 2.215 0 01-.898-.744c-.235-.333-.352-.754-.352-1.261v-8.682zm9.017 2.09v1.137h-4.523v-1.136h4.523zm-3.205-2.09h1.341V46.5c0 .379.055.663.165.852.114.186.258.31.432.375.178.06.365.091.562.091.148 0 .269-.007.364-.023l.227-.045.273 1.205a2.733 2.733 0 01-.381.102 2.8 2.8 0 01-.619.057 2.7 2.7 0 01-1.114-.245 2.205 2.205 0 01-.897-.744c-.235-.333-.353-.754-.353-1.261v-8.682zm5.222 14.09v-12h1.295v1.387h.159c.099-.151.235-.345.41-.58.178-.238.431-.45.761-.636.333-.19.784-.284 1.352-.284.735 0 1.383.184 1.943.551.561.368.998.889 1.313 1.563.314.674.471 1.47.471 2.386 0 .924-.157 1.726-.471 2.404-.315.674-.75 1.197-1.307 1.568-.557.367-1.199.55-1.926.55-.561 0-1.01-.092-1.347-.278-.337-.189-.596-.403-.778-.642a8.77 8.77 0 01-.421-.602h-.113v4.614h-1.341zm1.318-7.636c0 .66.097 1.24.29 1.745.193.5.475.892.846 1.176.372.28.826.42 1.364.42.561 0 1.028-.147 1.403-.443.379-.3.663-.7.853-1.204a4.73 4.73 0 00.29-1.694c0-.613-.095-1.166-.285-1.659-.185-.496-.467-.888-.846-1.176-.375-.291-.847-.437-1.415-.437-.545 0-1.004.138-1.375.414-.371.273-.651.656-.841 1.148-.189.489-.284 1.059-.284 1.71zm14.614-2.409l-1.205.341a2.233 2.233 0 00-.335-.585 1.628 1.628 0 00-.591-.477c-.25-.125-.57-.188-.96-.188-.534 0-.979.123-1.335.37-.353.242-.529.55-.529.926 0 .333.121.596.364.79.242.193.621.354 1.136.482l1.296.319c.78.189 1.361.479 1.744.869.383.386.574.884.574 1.494 0 .5-.144.947-.432 1.341-.284.394-.682.705-1.193.932-.512.227-1.106.34-1.784.34-.89 0-1.627-.192-2.211-.579-.583-.386-.952-.95-1.107-1.693l1.272-.318c.121.47.351.822.688 1.057.341.235.786.352 1.335.352.625 0 1.121-.133 1.489-.398.371-.269.556-.59.556-.966 0-.303-.106-.556-.318-.761-.212-.208-.538-.364-.977-.466l-1.455-.34c-.799-.19-1.386-.484-1.761-.882-.371-.401-.557-.903-.557-1.505 0-.493.139-.928.415-1.307a2.82 2.82 0 011.142-.892c.485-.216 1.034-.324 1.648-.324.863 0 1.541.19 2.034.568.496.38.848.88 1.057 1.5zm3.155 6.864a.985.985 0 01-.722-.301.983.983 0 01-.301-.722c0-.28.1-.52.301-.721a.984.984 0 01.722-.302c.28 0 .52.1.721.302.201.2.301.44.301.721a.96.96 0 01-.142.512c-.091.155-.214.28-.369.375a.975.975 0 01-.511.136zm0-6.477a.984.984 0 01-.722-.301.983.983 0 01-.301-.722c0-.28.1-.52.301-.722a.985.985 0 01.722-.3c.28 0 .52.1.721.3a.985.985 0 01.301.722.961.961 0 01-.142.511 1.06 1.06 0 01-.369.375.976.976 0 01-.511.137zm7.542-5.796l-3.75 13.932h-1.227l3.75-13.932h1.227zm5.703 0l-3.75 13.932h-1.227l3.75-13.932h1.227zM293.665 49v-8.727h1.295v1.363h.114c.182-.466.475-.827.881-1.085.405-.261.892-.392 1.46-.392.576 0 1.055.13 1.437.392.387.258.688.62.904 1.085h.091c.223-.45.558-.808 1.005-1.074.447-.268.983-.403 1.608-.403.781 0 1.419.244 1.915.733.496.485.744 1.24.744 2.267V49h-1.341v-5.84c0-.645-.176-1.105-.528-1.382a1.955 1.955 0 00-1.244-.414c-.614 0-1.089.185-1.426.556-.338.368-.506.834-.506 1.398V49h-1.364v-5.977c0-.497-.161-.896-.483-1.2-.322-.306-.736-.46-1.244-.46-.349 0-.674.093-.977.279-.3.186-.542.443-.728.773a2.29 2.29 0 00-.272 1.13V49h-1.341zm14.457 3.273a3 3 0 01-.608-.057 1.597 1.597 0 01-.369-.102l.341-1.182c.326.083.613.113.863.09.25-.022.472-.134.665-.334.197-.198.377-.518.54-.96l.25-.683-3.227-8.772h1.454l2.409 6.954h.091l2.409-6.954h1.455l-3.705 10a3.77 3.77 0 01-.619 1.119c-.246.3-.532.52-.858.665a2.646 2.646 0 01-1.091.216zm11.276-3.091c-.788 0-1.479-.188-2.074-.563-.591-.375-1.053-.9-1.386-1.574-.33-.674-.495-1.462-.495-2.363 0-.91.165-1.703.495-2.38.333-.679.795-1.205 1.386-1.58.595-.375 1.286-.563 2.074-.563.788 0 1.477.188 2.068.563.595.375 1.057.901 1.386 1.58.334.677.5 1.47.5 2.38 0 .901-.166 1.69-.5 2.363a3.763 3.763 0 01-1.386 1.574c-.591.375-1.28.563-2.068.563zm0-1.205c.598 0 1.091-.153 1.477-.46a2.72 2.72 0 00.858-1.21c.186-.5.278-1.042.278-1.625 0-.584-.092-1.127-.278-1.63a2.755 2.755 0 00-.858-1.222c-.386-.311-.879-.466-1.477-.466-.599 0-1.091.155-1.478.466-.386.31-.672.717-.858 1.221a4.695 4.695 0 00-.278 1.63c0 .584.093 1.126.278 1.626.186.5.472.903.858 1.21.387.307.879.46 1.478.46zM325.581 49V37.364h1.341v4.295h.114c.098-.151.234-.345.409-.58.178-.238.431-.45.761-.636.333-.19.784-.284 1.352-.284.735 0 1.383.184 1.943.551.561.368.999.889 1.313 1.563.314.674.472 1.47.472 2.386 0 .924-.158 1.726-.472 2.404-.314.674-.75 1.197-1.307 1.568-.557.367-1.199.55-1.926.55-.561 0-1.01-.092-1.347-.278-.337-.189-.596-.403-.778-.642a8.362 8.362 0 01-.42-.602h-.16V49h-1.295zm1.318-4.364c0 .66.097 1.24.29 1.745.193.5.475.892.847 1.176.371.28.825.42 1.363.42.561 0 1.029-.147 1.404-.443.378-.3.662-.7.852-1.204a4.73 4.73 0 00.29-1.694 4.6 4.6 0 00-.284-1.659c-.186-.496-.468-.888-.847-1.176-.375-.291-.847-.437-1.415-.437-.545 0-1.004.138-1.375.414-.371.273-.651.656-.841 1.148-.189.489-.284 1.059-.284 1.71zm15.262-4.363L338.933 49h-1.363l-3.228-8.727h1.455l2.409 6.954h.091l2.409-6.954h1.455zM343.93 49v-8.727h1.341V49h-1.341zm.682-10.182a.953.953 0 01-.676-.267.856.856 0 01-.278-.642c0-.25.092-.464.278-.642a.953.953 0 01.676-.267c.262 0 .485.089.671.267a.851.851 0 01.284.642c0 .25-.095.464-.284.642a.934.934 0 01-.671.267zm4.093 10.273a.985.985 0 01-.722-.301.983.983 0 01-.301-.722c0-.28.1-.52.301-.721a.984.984 0 01.722-.302c.28 0 .52.1.721.302.201.2.301.44.301.721a.96.96 0 01-.142.512c-.091.155-.214.28-.369.375a.975.975 0 01-.511.136zm6.974.09c-.818 0-1.523-.192-2.114-.579a3.774 3.774 0 01-1.363-1.596c-.318-.678-.478-1.453-.478-2.324 0-.887.163-1.669.489-2.347.33-.682.788-1.214 1.375-1.596.591-.387 1.28-.58 2.068-.58a3.91 3.91 0 011.659.341 3.18 3.18 0 011.211.955c.314.409.509.886.585 1.431h-1.341c-.102-.397-.33-.75-.682-1.056-.348-.311-.818-.466-1.409-.466-.523 0-.981.136-1.375.409-.39.269-.695.65-.915 1.142-.216.488-.324 1.062-.324 1.721 0 .675.106 1.262.319 1.762.215.5.518.888.909 1.164.394.277.856.415 1.386.415a2.4 2.4 0 00.949-.181c.284-.122.524-.296.721-.523a2 2 0 00.421-.819h1.341a3.101 3.101 0 01-1.739 2.37c-.485.239-1.049.358-1.693.358zm8.937 0c-.787 0-1.479-.187-2.073-.562-.591-.375-1.053-.9-1.387-1.574-.329-.674-.494-1.462-.494-2.363 0-.91.165-1.703.494-2.38.334-.679.796-1.205 1.387-1.58.594-.375 1.286-.563 2.073-.563.788 0 1.478.188 2.069.563.594.375 1.056.901 1.386 1.58.333.677.5 1.47.5 2.38 0 .901-.167 1.69-.5 2.363-.33.675-.792 1.2-1.386 1.574-.591.375-1.281.563-2.069.563zm0-1.204c.599 0 1.091-.153 1.478-.46a2.72 2.72 0 00.858-1.21c.185-.5.278-1.042.278-1.625 0-.584-.093-1.127-.278-1.63a2.755 2.755 0 00-.858-1.222c-.387-.311-.879-.466-1.478-.466-.598 0-1.09.155-1.477.466-.386.31-.672.717-.858 1.221a4.695 4.695 0 00-.278 1.63c0 .584.093 1.126.278 1.626.186.5.472.903.858 1.21.387.307.879.46 1.477.46zM370.618 49v-8.727h1.295v1.363h.114c.182-.466.475-.827.881-1.085.405-.261.892-.392 1.46-.392.576 0 1.055.13 1.437.392.387.258.688.62.904 1.085h.091c.223-.45.558-.808 1.005-1.074.447-.268.983-.403 1.608-.403.781 0 1.419.244 1.915.733.496.485.744 1.24.744 2.267V49h-1.34v-5.84c0-.645-.177-1.105-.529-1.382a1.955 1.955 0 00-1.244-.414c-.614 0-1.089.185-1.426.556-.337.368-.506.834-.506 1.398V49h-1.364v-5.977c0-.497-.161-.896-.483-1.2-.322-.306-.736-.46-1.244-.46-.348 0-.674.093-.977.279a2.1 2.1 0 00-.727.773 2.28 2.28 0 00-.273 1.13V49h-1.341zm18.02-12.182l-3.75 13.932h-1.227l3.75-13.932h1.227z" fill="#535353"/>
    </g>
  </g>
  <defs>
    <clipPath id="Q2q0hY9Pra8mb">
      <rect x="8" y="4" width="562" height="76" rx="15" fill="#fff"/>
    </clipPath>
    <clipPath id="Q2q0hY9Pra8mc">
      <path fill="#fff" transform="translate(31 27)" d="M0 0h30v34.286H0z"/>
    </clipPath>
    <filter id="Q2q0hY9Pra8ma" x="0" y="0" width="578" height="92" filterUnits="userSpaceOnUse" color-interpolation-filters="sRGB">
      <feFlood flood-opacity="0" result="BackgroundImageFix"/>
      <feColorMatrix in="SourceAlpha" type="matrix" values="0 0 0 0 0 0 0 0 0 0 0 0 0 0 0 0 0 0 127 0" result="hardAlpha"/>
      <feOffset dy="4"/>
      <feGaussianBlur stdDeviation="4"/>
      <feComposite in2="hardAlpha" operator="out"/>
      <feColorMatrix type="matrix" values="0 0 0 0 0 0 0 0 0 0 0 0 0 0 0 0 0 0 0.2 0"/>
      <feBlend mode="normal" in2="BackgroundImageFix" result="effect1_dropShadow_493_3607"/>
      <feBlend mode="normal" in="SourceGraphic" in2="effect1_dropShadow_493_3607" result="shape"/>
    </filter>
  </defs>
</svg>
