<svg fill="none" xmlns="http://www.w3.org/2000/svg" viewBox="0 0 24 24">
  <path fill-rule="evenodd" clip-rule="evenodd" d="M16 3.243H8a5 5 0 00-5 5v8a5 5 0 005 5h8a5 5 0 005-5v-8a5 5 0 00-5-5zm3.25 13a3.26 3.26 0 01-3.25 3.25H8a3.26 3.26 0 01-3.25-3.25v-8A3.26 3.26 0 018 4.993h8a3.26 3.26 0 013.25 3.25v8zm-2.5-7.75a1 1 0 100-2 1 1 0 000 2zM12 7.743a4.5 4.5 0 104.5 4.5 4.49 4.49 0 00-4.5-4.5zm-2.75 4.5a2.75 2.75 0 105.5 0 2.75 2.75 0 00-5.5 0z" fill="url(#kipQ5kYHX6WZa)"/>
  <defs>
    <linearGradient id="kipQ5kYHX6WZa" x1="15.713" y1="-19.82" x2="27.29" y2="31.522" gradientUnits="userSpaceOnUse">
      <stop stop-color="#fff"/>
      <stop offset="1" stop-color="#fff" stop-opacity="0"/>
    </linearGradient>
  </defs>
</svg>
