<svg fill="none" xmlns="http://www.w3.org/2000/svg" viewBox="0 0 18 18">
  <path d="M14.25 0H3.75A3.75 3.75 0 000 3.75v10.5A3.75 3.75 0 003.75 18h10.5A3.75 3.75 0 0018 14.25V3.75A3.75 3.75 0 0014.25 0zM6 14.25H3.75V6H6v8.25zM4.875 5.049a1.318 1.318 0 01-1.313-1.323c0-.73.589-1.323 1.313-1.323s1.313.592 1.313 1.323c0 .73-.588 1.323-1.313 1.323zM15 14.25h-2.25v-4.203c0-2.526-3-2.335-3 0v4.203H7.5V6h2.25v1.324C10.797 5.384 15 5.24 15 9.18v5.069z" fill="url(#ITC9ZC5-50aXa)"/>
  <defs>
    <linearGradient id="ITC9ZC5-50aXa" x1="12.713" y1="-23.063" x2="24.29" y2="28.279" gradientUnits="userSpaceOnUse">
      <stop stop-color="#7D7D7D"/>
      <stop offset="1" stop-color="#7D7D7D" stop-opacity="0"/>
    </linearGradient>
  </defs>
</svg>
