<svg fill="none" xmlns="http://www.w3.org/2000/svg" viewBox="0 0 807 145">
  <path d="M138 97.5l261.5-62 269.5 62" stroke="#000" stroke-width="5" stroke-dasharray="10 10"/>
  <path d="M139.231 125.115a39.343 39.343 0 00-35.485-64.141A39.344 39.344 0 0069.625 100a39.09 39.09 0 009.144 25.115l-.056.047c.196.238.421.441.624.673.254.291.525.562.788.846a39.33 39.33 0 002.447 2.447c.257.233.524.453.787.679a39.03 39.03 0 002.785 2.198c.124.088.234.195.358.283v-.036a39.093 39.093 0 0045.001 0v.035c.124-.088.234-.195.358-.283a38.921 38.921 0 002.785-2.197c.263-.225.53-.446.787-.68a39.223 39.223 0 002.447-2.447c.263-.283.533-.554.788-.846.202-.232.428-.435.625-.672l-.062-.047zM109 77.5a12.654 12.654 0 0112.413 15.125 12.654 12.654 0 01-17.256 9.224A12.656 12.656 0 01109 77.499zm-22.48 47.615a14.05 14.05 0 0114.043-13.865h16.875a14.05 14.05 0 0114.042 13.865 33.578 33.578 0 01-44.96 0z" fill="#000"/>
  <circle cx="404" cy="55" r="55" fill="#348B6B"/>
  <path fill-rule="evenodd" clip-rule="evenodd" d="M436.076 48.114a19.008 19.008 0 00-1.637-15.56 19.132 19.132 0 00-20.624-9.185 19.194 19.194 0 00-18.256-5.95 19.267 19.267 0 00-14.289 12.825 19.003 19.003 0 00-12.671 9.185c-4.198 7.203-3.236 16.292 2.349 22.474a18.93 18.93 0 001.618 15.56c4.159 7.221 12.498 10.938 20.643 9.185a18.982 18.982 0 0014.289 6.374c8.339 0 15.734-5.372 18.276-13.326a19.005 19.005 0 0012.671-9.185c4.14-7.183 3.177-16.234-2.369-22.396zm-28.578 39.94a14.188 14.188 0 01-9.108-3.293l.443-.25 15.136-8.743c.77-.443 1.232-1.271 1.252-2.157V52.255l6.393 3.697c.058.039.115.096.115.174v17.678c-.019 7.876-6.374 14.23-14.231 14.25zm-30.599-13.076a14.128 14.128 0 01-1.695-9.551l.443.27 15.155 8.742a2.453 2.453 0 002.465 0l18.506-10.668v7.394a.236.236 0 01-.096.193l-15.329 8.84c-6.817 3.928-15.521 1.598-19.449-5.22zm-4.006-32.968a14.18 14.18 0 017.491-6.259v17.987a2.39 2.39 0 001.233 2.137l18.41 10.63-6.394 3.698a.245.245 0 01-.231 0l-15.31-8.82c-6.797-3.948-9.127-12.633-5.218-19.45v.077h.019zm52.592 12.209l-18.487-10.726 6.393-3.678a.245.245 0 01.231 0l15.31 8.839a14.235 14.235 0 01-2.157 25.67V56.337a2.56 2.56 0 00-1.29-2.118zm6.355-9.57l-.443-.27-15.117-8.82a2.49 2.49 0 00-2.485 0l-18.487 10.668v-7.394c0-.078.02-.155.097-.193l15.309-8.82a14.269 14.269 0 0115.271.655c4.526 3.158 6.837 8.666 5.893 14.096v.077h-.038zm-40.036 13.094l-6.394-3.678c-.058-.038-.115-.096-.115-.173v-17.64a14.203 14.203 0 018.203-12.883 14.254 14.254 0 0115.156 1.945l-.443.25-15.136 8.743c-.771.443-1.233 1.271-1.252 2.157l-.019 21.28zm3.466-7.491l8.242-4.757 8.261 4.757v9.494l-8.222 4.756-8.262-4.756-.019-9.494z" fill="#fff"/>
  <path d="M729.231 125.115a39.343 39.343 0 00-35.485-64.141 39.34 39.34 0 00-29.698 20.873A39.335 39.335 0 00659.625 100a39.084 39.084 0 009.144 25.115l-.057.047c.197.238.422.441.625.673.254.291.525.562.788.846a39.223 39.223 0 002.447 2.447c.257.233.524.453.787.679.9.776 1.824 1.511 2.785 2.198.124.088.234.195.359.283v-.036a39.091 39.091 0 0045 0v.035c.124-.088.234-.195.358-.283a38.921 38.921 0 002.785-2.197c.263-.225.53-.446.787-.68a39.223 39.223 0 002.447-2.447c.263-.283.533-.554.788-.846.202-.232.428-.435.625-.672l-.062-.047zM699 77.5a12.654 12.654 0 0112.413 15.125 12.654 12.654 0 01-17.256 9.224 12.651 12.651 0 01-7.813-11.693A12.654 12.654 0 01699 77.5zm-22.48 47.615a14.052 14.052 0 0114.043-13.865h16.875a14.05 14.05 0 0114.042 13.865 33.578 33.578 0 01-44.96 0z" fill="#000"/>
</svg>
