<svg fill="none" xmlns="http://www.w3.org/2000/svg" viewBox="0 0 145 807">
  <g clip-path="url(#5r2tpl2NCAuSa)">
    <path d="M47.5 138l62 261.5-62 269.5" stroke="#000" stroke-width="5" stroke-dasharray="10 10"/>
    <path d="M75.231 128.115a39.345 39.345 0 10-69.606-25.116 39.094 39.094 0 009.144 25.116l-.056.047c.196.237.421.44.624.672.254.292.525.563.788.846a39.33 39.33 0 002.447 2.447c.257.234.524.454.787.68.9.776 1.824 1.511 2.785 2.197.124.088.234.195.359.283v-.035a39.1 39.1 0 0045 0v.035c.124-.088.234-.195.358-.283a39.301 39.301 0 002.785-2.198c.263-.225.53-.446.787-.679a39.69 39.69 0 002.447-2.447c.263-.283.533-.555.788-.846.202-.232.428-.435.625-.673l-.062-.046zM45 80.499a12.656 12.656 0 110 25.312 12.656 12.656 0 010-25.312zm-22.48 47.616a14.05 14.05 0 0114.043-13.866h16.874a14.051 14.051 0 0114.043 13.866 33.582 33.582 0 01-44.96 0z" fill="#000"/>
    <circle cx="90" cy="404" r="55" fill="#348B6B"/>
    <path fill-rule="evenodd" clip-rule="evenodd" d="M122.076 397.114a19.006 19.006 0 00-1.637-15.559 19.13 19.13 0 00-20.624-9.186 19.194 19.194 0 00-18.256-5.951 19.269 19.269 0 00-14.29 12.826 19.004 19.004 0 00-12.67 9.185c-4.198 7.203-3.236 16.292 2.349 22.474a18.931 18.931 0 001.618 15.56c4.16 7.221 12.498 10.938 20.643 9.185a18.976 18.976 0 0014.29 6.374c8.338 0 15.733-5.372 18.275-13.326a19.004 19.004 0 0012.671-9.185c4.14-7.183 3.177-16.234-2.369-22.397zm-28.578 39.94a14.186 14.186 0 01-9.108-3.293l.443-.25 15.136-8.743c.77-.443 1.232-1.271 1.252-2.157v-21.356l6.393 3.697c.058.039.115.096.115.174v17.678c-.019 7.876-6.374 14.231-14.23 14.25zm-30.6-13.076a14.13 14.13 0 01-1.694-9.551l.443.269 15.155 8.743c.77.443 1.714.443 2.465 0l18.507-10.668v7.394a.237.237 0 01-.097.193l-15.329 8.839c-6.817 3.929-15.521 1.598-19.45-5.219zm-4.005-32.968a14.18 14.18 0 017.491-6.259v17.987a2.39 2.39 0 001.233 2.137l18.41 10.63-6.394 3.698a.248.248 0 01-.231 0l-15.31-8.82c-6.797-3.948-9.127-12.633-5.218-19.45v.077h.019zm52.592 12.209l-18.487-10.726 6.393-3.678a.243.243 0 01.231 0l15.31 8.839a14.234 14.234 0 01-2.157 25.67v-17.987a2.559 2.559 0 00-1.29-2.118zm6.355-9.571l-.443-.269-15.117-8.82a2.488 2.488 0 00-2.484 0l-18.488 10.668v-7.395c0-.077.02-.154.097-.192l15.31-8.82a14.268 14.268 0 0115.27.655c4.526 3.158 6.837 8.666 5.893 14.096v.077h-.038zm-40.036 13.095l-6.394-3.678c-.057-.039-.115-.096-.115-.173v-17.64a14.203 14.203 0 018.203-12.883 14.252 14.252 0 0115.156 1.945l-.443.25-15.136 8.743c-.77.443-1.233 1.271-1.252 2.157l-.02 21.279zm3.466-7.491l8.242-4.757 8.261 4.757v9.494l-8.222 4.756-8.262-4.756-.019-9.494z" fill="#fff"/>
    <path d="M75.231 724.115a39.341 39.341 0 00-1.34-51.821 39.343 39.343 0 00-51.545-5.513A39.344 39.344 0 005.625 699a39.089 39.089 0 009.144 25.115l-.056.047c.196.238.421.441.624.673.254.291.525.562.788.846a39.33 39.33 0 002.447 2.447c.257.233.524.453.787.679a39.03 39.03 0 002.785 2.198c.124.088.234.195.359.283v-.036a39.093 39.093 0 0045 0v.035c.124-.088.234-.195.358-.283a39 39 0 002.785-2.197c.263-.225.53-.446.787-.68a39.223 39.223 0 002.447-2.447c.263-.283.533-.554.788-.846.202-.232.428-.435.625-.672l-.062-.047zM45 676.5a12.654 12.654 0 0112.413 15.125A12.656 12.656 0 1145 676.5zm-22.48 47.615a14.05 14.05 0 0114.043-13.865h16.874a14.05 14.05 0 0114.043 13.865 33.578 33.578 0 01-44.96 0z" fill="#000"/>
  </g>
  <defs>
    <clipPath id="5r2tpl2NCAuSa">
      <path fill="#fff" transform="rotate(90 72.5 72.5)" d="M0 0h807v145H0z"/>
    </clipPath>
  </defs>
</svg>
