<svg fill="none" xmlns="http://www.w3.org/2000/svg" viewBox="0 0 704 92">
  <g filter="url(#JlNLRjz2U-Xga)">
    <g clip-path="url(#JlNLRjz2U-Xgb)">
      <rect x="8" y="4" width="688" height="76" rx="15" fill="#fff"/>
      <rect x="24" y="25" width="36" height="36" rx="7" fill="#000"/>
      <g clip-path="url(#JlNLRjz2U-Xgc)">
        <mask id="JlNLRjz2U-Xgd" style="mask-type:luminance" maskUnits="userSpaceOnUse" x="27" y="27" width="30" height="35">
          <path d="M27 27h30v34.286H27V27z" fill="#fff"/>
        </mask>
        <g mask="url(#JlNLRjz2U-Xgd)">
          <path d="M42 44.143a8.57 8.57 0 008.571-8.572A8.57 8.57 0 0042 27a8.57 8.57 0 00-8.571 8.571A8.57 8.57 0 0042 44.143zm6 2.143h-1.118A11.67 11.67 0 0142 47.357c-1.741 0-3.388-.388-4.882-1.071H36c-4.969 0-9 4.031-9 9v2.785a3.215 3.215 0 003.214 3.215h23.572A3.215 3.215 0 0057 58.07v-2.785c0-4.969-4.031-9-9-9z" fill="#fff"/>
        </g>
      </g>
      <path d="M70.41 32.364h1.613l3.227 5.431h.136l3.228-5.431h1.613l-4.204 6.84V44h-1.41v-4.795l-4.204-6.841zm13.883 11.818c-.841 0-1.567-.186-2.177-.557a3.737 3.737 0 01-1.403-1.568c-.326-.674-.489-1.459-.489-2.352 0-.894.163-1.682.49-2.364.329-.686.787-1.22 1.374-1.602.591-.387 1.28-.58 2.068-.58.455 0 .904.076 1.347.227.443.152.846.398 1.21.739.364.337.654.784.87 1.34.215.558.323 1.243.323 2.058v.568H81.18v-1.16h5.364c0-.492-.099-.931-.296-1.317a2.226 2.226 0 00-.83-.915c-.355-.224-.776-.335-1.26-.335-.535 0-.997.132-1.387.397a2.616 2.616 0 00-.892 1.023c-.209.42-.313.871-.313 1.352v.773c0 .66.114 1.218.341 1.676.231.455.551.801.96 1.04.41.235.885.352 1.427.352.352 0 .67-.049.954-.147.288-.103.536-.254.745-.455.208-.205.369-.458.482-.761l1.296.363c-.136.44-.366.826-.688 1.16-.322.329-.72.587-1.193.772a4.426 4.426 0 01-1.596.273zm5.653 3.09v-12h1.296v1.387h.159c.098-.151.234-.345.409-.58.178-.238.431-.45.761-.636.333-.19.784-.284 1.352-.284.735 0 1.383.184 1.944.551.56.368.998.889 1.312 1.563.314.674.472 1.47.472 2.386 0 .924-.158 1.726-.472 2.404-.314.674-.75 1.197-1.307 1.568-.557.367-1.199.55-1.926.55-.56 0-1.01-.092-1.347-.278-.337-.189-.596-.403-.778-.642a8.623 8.623 0 01-.42-.602h-.114v4.614h-1.341zm1.318-7.636c0 .66.097 1.24.29 1.745.193.5.475.892.847 1.176.37.28.825.42 1.363.42.56 0 1.029-.147 1.404-.443.378-.3.662-.7.852-1.204.193-.508.29-1.072.29-1.694 0-.613-.095-1.166-.284-1.659-.186-.496-.468-.888-.847-1.176-.375-.291-.847-.437-1.415-.437-.545 0-1.004.138-1.375.414-.371.273-.651.656-.84 1.148-.19.489-.285 1.059-.285 1.71zm10.432 2.773l-.091.614a12.43 12.43 0 01-.295 1.386c-.129.492-.264.956-.404 1.392-.14.436-.255.782-.346 1.04h-1.023c.05-.242.114-.563.193-.96.08-.398.16-.843.239-1.336.083-.488.151-.988.204-1.5l.068-.636h1.455zm8.325-10.045V44h-1.341V32.364h1.341zm6.115 11.818c-.841 0-1.566-.186-2.176-.557a3.733 3.733 0 01-1.403-1.568c-.326-.674-.489-1.459-.489-2.352 0-.894.163-1.682.489-2.364.329-.686.788-1.22 1.375-1.602.591-.387 1.28-.58 2.068-.58.455 0 .903.076 1.347.227a3.34 3.34 0 011.21.739c.363.337.653.784.869 1.34.216.558.324 1.243.324 2.058v.568h-6.727v-1.16h5.363c0-.492-.098-.931-.295-1.317a2.225 2.225 0 00-.83-.915c-.356-.224-.776-.335-1.261-.335-.534 0-.996.132-1.386.397a2.608 2.608 0 00-.892 1.023c-.209.42-.313.871-.313 1.352v.773c0 .66.114 1.218.341 1.676.231.455.551.801.96 1.04.409.235.885.352 1.426.352a2.9 2.9 0 00.955-.147c.288-.103.536-.254.744-.455.209-.205.37-.458.483-.761l1.296.363a2.88 2.88 0 01-.688 1.16c-.322.329-.72.587-1.193.772a4.43 4.43 0 01-1.597.273zm9.449-8.91v1.137h-4.523v-1.136h4.523zm-3.204-2.09h1.341V41.5c0 .379.055.663.164.852.114.186.258.31.432.375.178.06.366.091.563.091.147 0 .269-.007.363-.023l.228-.045.272 1.205a2.713 2.713 0 01-.38.102c-.163.038-.37.057-.62.057-.378 0-.75-.082-1.113-.245a2.215 2.215 0 01-.898-.744c-.235-.333-.352-.754-.352-1.261v-8.682zm6.856-.818v1.022c0 .311-.057.642-.17.995-.11.348-.273.687-.489 1.017-.212.325-.47.61-.773.852l-.727-.59c.239-.342.445-.696.619-1.063.178-.372.267-.767.267-1.188v-1.045h1.273zm6.719 4.863l-1.205.341a2.206 2.206 0 00-.335-.585 1.628 1.628 0 00-.591-.477c-.25-.125-.57-.188-.96-.188-.534 0-.979.123-1.335.37-.352.242-.529.55-.529.926 0 .333.122.596.364.79.242.193.621.354 1.136.482l1.296.319c.78.189 1.362.479 1.744.869.383.386.574.884.574 1.494 0 .5-.144.947-.432 1.341-.284.394-.682.705-1.193.932-.511.227-1.106.34-1.784.34-.89 0-1.627-.192-2.21-.579-.584-.386-.953-.95-1.108-1.693l1.273-.318c.121.47.35.822.687 1.057.341.235.786.352 1.335.352.625 0 1.121-.133 1.489-.398.371-.269.557-.59.557-.966 0-.303-.106-.556-.318-.761-.213-.208-.538-.364-.978-.466l-1.454-.34c-.8-.19-1.387-.484-1.762-.882-.371-.401-.556-.903-.556-1.505 0-.493.138-.928.414-1.307a2.828 2.828 0 011.142-.892c.485-.216 1.034-.324 1.648-.324.864 0 1.542.19 2.034.568.496.38.849.88 1.057 1.5zm8.018-4.863V44h-1.34V32.364h1.34zm5.025 11.84a3.548 3.548 0 01-1.506-.312 2.582 2.582 0 01-1.074-.915c-.265-.401-.398-.886-.398-1.454 0-.5.099-.906.296-1.216.197-.315.46-.56.79-.739a4.18 4.18 0 011.09-.398c.402-.09.805-.162 1.211-.215.53-.069.96-.12 1.289-.154.334-.038.576-.1.728-.187.155-.087.233-.239.233-.455v-.045c0-.561-.154-.997-.461-1.307-.303-.31-.763-.466-1.38-.466-.64 0-1.142.14-1.506.42-.364.28-.619.58-.767.898l-1.273-.454c.228-.53.531-.944.909-1.24.383-.298.8-.507 1.25-.624a5.196 5.196 0 011.341-.182 5.3 5.3 0 01.966.102c.368.065.722.2 1.063.404.344.204.63.513.858.926.227.413.341.966.341 1.659V44h-1.341v-1.182h-.069a2.33 2.33 0 01-.454.608c-.212.216-.494.4-.847.551-.352.152-.782.228-1.289.228zm.204-1.204c.53 0 .977-.104 1.341-.313.367-.208.644-.477.83-.806a2.06 2.06 0 00.284-1.04v-1.227c-.057.068-.182.13-.375.187-.19.053-.409.1-.659.142a30.34 30.34 0 01-1.285.17 5.19 5.19 0 00-.977.222 1.687 1.687 0 00-.727.45c-.182.196-.273.465-.273.806 0 .466.173.818.517 1.057.349.235.79.352 1.324.352zm11.743-2.568v-5.16h1.341V44h-1.341v-1.477h-.091a2.86 2.86 0 01-.954 1.13c-.432.307-.978.46-1.637.46-.545 0-1.03-.119-1.454-.357-.425-.243-.758-.606-1-1.091-.243-.489-.364-1.104-.364-1.847v-5.545h1.341v5.454c0 .637.178 1.144.534 1.523.36.379.818.568 1.375.568a2.29 2.29 0 001.017-.255c.349-.171.64-.432.875-.785.239-.352.358-.8.358-1.346zm5.138-1.682V44h-1.341v-8.727h1.295v1.363h.114c.205-.443.515-.799.932-1.068.416-.273.954-.409 1.613-.409.591 0 1.108.121 1.552.364.443.238.787.602 1.034 1.09.246.486.369 1.1.369 1.842V44h-1.341v-5.455c0-.685-.178-1.22-.534-1.602-.356-.386-.845-.58-1.466-.58a2.34 2.34 0 00-1.148.279 1.992 1.992 0 00-.789.813c-.194.356-.29.787-.29 1.295zm11.564 5.432c-.818 0-1.523-.193-2.114-.58a3.783 3.783 0 01-1.364-1.596c-.318-.678-.477-1.453-.477-2.324 0-.887.163-1.669.489-2.347.329-.682.788-1.214 1.375-1.596.591-.387 1.28-.58 2.068-.58a3.91 3.91 0 011.659.341 3.17 3.17 0 011.21.955c.315.409.51.886.586 1.431h-1.341c-.103-.397-.33-.75-.682-1.056-.349-.311-.818-.466-1.409-.466-.523 0-.981.136-1.375.409-.39.269-.695.65-.915 1.142-.216.488-.324 1.062-.324 1.721 0 .675.106 1.262.318 1.762.216.5.519.888.909 1.164.394.277.856.415 1.387.415a2.4 2.4 0 00.949-.181c.284-.122.524-.296.721-.523.197-.228.337-.5.421-.819h1.341c-.076.516-.264.98-.563 1.393a3.142 3.142 0 01-1.176.977c-.485.239-1.049.358-1.693.358zm6.733-5.432V44h-1.341V32.364h1.341v4.272h.113c.205-.45.512-.808.921-1.074.413-.268.962-.403 1.647-.403.595 0 1.116.12 1.563.358a2.41 2.41 0 011.04 1.085c.25.485.375 1.103.375 1.853V44h-1.341v-5.455c0-.693-.18-1.229-.54-1.608-.356-.382-.85-.573-1.483-.573-.439 0-.833.092-1.182.278a2.04 2.04 0 00-.818.813c-.197.356-.295.787-.295 1.295zM196.993 44v-8.727h1.341V44h-1.341zm.682-10.182a.951.951 0 01-.676-.267.857.857 0 01-.279-.642c0-.25.093-.464.279-.642a.951.951 0 01.676-.267c.261 0 .485.089.67.267.19.178.284.392.284.642s-.094.464-.284.642a.932.932 0 01-.67.267zm6.91 1.455v1.136h-4.523v-1.136h4.523zm-3.204-2.091h1.341V41.5c0 .379.055.663.164.852.114.186.258.31.432.375.178.06.366.091.563.091.147 0 .269-.007.363-.023l.228-.045.272 1.205a2.713 2.713 0 01-.38.102c-.163.038-.37.057-.62.057-.378 0-.75-.082-1.113-.245a2.215 2.215 0 01-.898-.744c-.235-.333-.352-.754-.352-1.261v-8.682zm6.994-.818l-.114 8.363h-1.318l-.113-8.363h1.545zm-.773 11.727c-.28 0-.521-.1-.721-.301a.983.983 0 01-.301-.722c0-.28.1-.52.301-.721a.982.982 0 01.721-.302c.281 0 .521.1.722.302.201.2.301.44.301.721a.96.96 0 01-.142.512c-.091.155-.214.28-.369.375a.976.976 0 01-.512.136z" fill="#535353"/>
    </g>
  </g>
  <defs>
    <clipPath id="JlNLRjz2U-Xgb">
      <rect x="8" y="4" width="688" height="76" rx="15" fill="#fff"/>
    </clipPath>
    <clipPath id="JlNLRjz2U-Xgc">
      <path fill="#fff" transform="translate(27 27)" d="M0 0h30v34.286H0z"/>
    </clipPath>
    <filter id="JlNLRjz2U-Xga" x="0" y="0" width="704" height="92" filterUnits="userSpaceOnUse" color-interpolation-filters="sRGB">
      <feFlood flood-opacity="0" result="BackgroundImageFix"/>
      <feColorMatrix in="SourceAlpha" type="matrix" values="0 0 0 0 0 0 0 0 0 0 0 0 0 0 0 0 0 0 127 0" result="hardAlpha"/>
      <feOffset dy="4"/>
      <feGaussianBlur stdDeviation="4"/>
      <feComposite in2="hardAlpha" operator="out"/>
      <feColorMatrix type="matrix" values="0 0 0 0 0 0 0 0 0 0 0 0 0 0 0 0 0 0 0.2 0"/>
      <feBlend mode="normal" in2="BackgroundImageFix" result="effect1_dropShadow_517_4384"/>
      <feBlend mode="normal" in="SourceGraphic" in2="effect1_dropShadow_517_4384" result="shape"/>
    </filter>
  </defs>
</svg>
