<svg fill="none" xmlns="http://www.w3.org/2000/svg" viewBox="0 0 704 92">
  <g filter="url(#tTVe-wMBzWNva)">
    <g clip-path="url(#tTVe-wMBzWNvb)">
      <rect x="8" y="4" width="688" height="76" rx="15" fill="#fff"/>
      <rect x="24" y="25" width="36" height="36" rx="7" fill="#000"/>
      <g clip-path="url(#tTVe-wMBzWNvc)">
        <mask id="tTVe-wMBzWNvd" style="mask-type:luminance" maskUnits="userSpaceOnUse" x="27" y="27" width="30" height="35">
          <path d="M27 27h30v34.286H27V27z" fill="#fff"/>
        </mask>
        <g mask="url(#tTVe-wMBzWNvd)">
          <path d="M42 44.143a8.57 8.57 0 008.571-8.572A8.57 8.57 0 0042 27a8.57 8.57 0 00-8.571 8.571A8.57 8.57 0 0042 44.143zm6 2.143h-1.118A11.67 11.67 0 0142 47.357c-1.741 0-3.388-.388-4.882-1.071H36c-4.969 0-9 4.031-9 9v2.785a3.215 3.215 0 003.214 3.215h23.572A3.215 3.215 0 0057 58.07v-2.785c0-4.969-4.031-9-9-9z" fill="#fff"/>
        </g>
      </g>
      <path d="M75 44h-3.59V32.364h3.75c1.128 0 2.094.233 2.897.699.803.462 1.418 1.126 1.846 1.994.428.863.642 1.898.642 3.102 0 1.212-.216 2.256-.647 3.13a4.615 4.615 0 01-1.887 2.012c-.825.466-1.83.699-3.011.699zm-2.182-1.25h2.091c.962 0 1.76-.186 2.392-.557a3.431 3.431 0 001.415-1.585c.31-.686.466-1.502.466-2.449 0-.94-.154-1.748-.46-2.426a3.394 3.394 0 00-1.375-1.568c-.61-.368-1.37-.551-2.279-.551h-2.25v9.136zm13.455 1.432c-.788 0-1.48-.188-2.074-.563-.591-.375-1.053-.9-1.386-1.574-.33-.674-.495-1.462-.495-2.363 0-.91.165-1.703.495-2.38.333-.679.795-1.205 1.386-1.58.595-.375 1.286-.563 2.074-.563.788 0 1.477.188 2.068.563.595.375 1.057.901 1.386 1.58.334.677.5 1.47.5 2.38 0 .901-.166 1.69-.5 2.363a3.77 3.77 0 01-1.386 1.574c-.591.375-1.28.563-2.068.563zm0-1.205c.598 0 1.09-.153 1.477-.46a2.72 2.72 0 00.858-1.21c.186-.5.278-1.042.278-1.625 0-.584-.092-1.127-.278-1.63a2.75 2.75 0 00-.858-1.222c-.386-.311-.879-.466-1.477-.466-.599 0-1.091.155-1.477.466-.387.31-.673.717-.859 1.221a4.681 4.681 0 00-.278 1.63c0 .584.093 1.126.278 1.626.186.5.472.903.859 1.21.386.307.878.46 1.477.46zm7.342-4.227V44h-1.34v-8.727h1.295v1.363h.113c.205-.443.515-.799.932-1.068.417-.273.955-.409 1.614-.409.59 0 1.108.121 1.55.364.444.238.789.602 1.035 1.09.246.486.37 1.1.37 1.842V44h-1.342v-5.455c0-.685-.178-1.22-.534-1.602-.356-.386-.845-.58-1.466-.58-.428 0-.81.093-1.147.279a1.993 1.993 0 00-.79.813c-.193.356-.29.787-.29 1.295zm11.678 5.432c-.841 0-1.567-.186-2.177-.557a3.74 3.74 0 01-1.403-1.568c-.326-.674-.489-1.459-.489-2.352 0-.894.163-1.682.489-2.364.33-.686.788-1.22 1.375-1.602.591-.387 1.28-.58 2.068-.58.455 0 .904.076 1.347.227a3.34 3.34 0 011.21.739c.364.337.653.784.869 1.34.216.558.324 1.243.324 2.058v.568h-6.727v-1.16h5.364c0-.492-.099-.931-.296-1.317a2.23 2.23 0 00-.829-.915c-.356-.224-.777-.335-1.262-.335-.534 0-.996.132-1.386.397a2.615 2.615 0 00-.892 1.023 3.01 3.01 0 00-.313 1.352v.773c0 .66.114 1.218.341 1.676.231.455.551.801.96 1.04.41.235.885.352 1.427.352.352 0 .67-.049.954-.147.288-.103.536-.254.744-.455.209-.205.37-.458.483-.761l1.296.363a2.87 2.87 0 01-.688 1.16 3.344 3.344 0 01-1.193.772 4.42 4.42 0 01-1.596.273zm7.426-11.818l-.114 8.363h-1.318l-.114-8.363h1.546zm-.773 11.727c-.28 0-.521-.1-.722-.301a.987.987 0 01-.301-.722c0-.28.101-.52.301-.721a.986.986 0 01.722-.302c.28 0 .521.1.722.302.2.2.301.44.301.721a1.058 1.058 0 01-.512.886.972.972 0 01-.511.137zM123.672 44h-3.591V32.364h3.75c1.129 0 2.095.233 2.898.699.803.462 1.418 1.126 1.846 1.994.428.863.642 1.898.642 3.102 0 1.212-.216 2.256-.647 3.13a4.616 4.616 0 01-1.887 2.012c-.826.466-1.829.699-3.011.699zm-2.182-1.25h2.091c.962 0 1.759-.186 2.392-.557a3.432 3.432 0 001.415-1.585c.31-.686.466-1.502.466-2.449 0-.94-.154-1.748-.461-2.426a3.389 3.389 0 00-1.375-1.568c-.609-.368-1.369-.551-2.278-.551h-2.25v9.136zm9.909 1.25v-8.727h1.341V44h-1.341zm.682-10.182a.953.953 0 01-.676-.267.857.857 0 01-.279-.642c0-.25.093-.464.279-.642a.953.953 0 01.676-.267c.261 0 .485.089.67.267.19.178.285.392.285.642s-.095.464-.285.642a.932.932 0 01-.67.267zm6.41 10.364c-.727 0-1.369-.184-1.926-.551-.556-.371-.992-.894-1.306-1.569-.315-.677-.472-1.479-.472-2.403 0-.917.157-1.712.472-2.386.314-.675.751-1.195 1.312-1.563.561-.367 1.208-.55 1.943-.55.568 0 1.017.094 1.347.283.333.186.587.398.761.637.178.234.316.428.415.58h.114v-4.296h1.34V44h-1.295v-1.34h-.159a8.77 8.77 0 01-.421.601c-.181.239-.441.453-.778.642-.337.186-.786.279-1.347.279zm.182-1.205c.538 0 .993-.14 1.364-.42.371-.284.653-.676.847-1.176.193-.504.289-1.086.289-1.745 0-.651-.094-1.221-.284-1.71-.189-.492-.469-.875-.841-1.148-.371-.276-.829-.414-1.375-.414-.568 0-1.041.146-1.42.437-.375.288-.657.68-.847 1.176a4.689 4.689 0 00-.278 1.66c0 .62.095 1.185.284 1.693.193.503.477.905.852 1.204.379.296.849.443 1.409.443zM149.634 44v-8.727h1.34V44h-1.34zm.681-10.182a.954.954 0 01-.676-.267.86.86 0 01-.278-.642.86.86 0 01.278-.642.955.955 0 01.676-.267c.262 0 .485.089.671.267a.851.851 0 01.284.642c0 .25-.095.464-.284.642a.934.934 0 01-.671.267zm6.911 1.455v1.136h-4.523v-1.136h4.523zm-3.205-2.091h1.341V41.5c0 .379.055.663.165.852.114.186.258.31.432.375.178.06.365.091.562.091.148 0 .269-.007.364-.023l.227-.045.273 1.205a2.733 2.733 0 01-.381.102 2.8 2.8 0 01-.619.057 2.7 2.7 0 01-1.114-.245 2.205 2.205 0 01-.897-.744c-.235-.333-.353-.754-.353-1.261v-8.682zM165.72 44l-2.659-8.727h1.409l1.887 6.681h.09l1.864-6.681h1.432l1.841 6.659h.091l1.886-6.66h1.409L172.311 44h-1.318l-1.909-6.705h-.137L167.038 44h-1.318zm14.271.182c-.787 0-1.479-.188-2.073-.563-.591-.375-1.053-.9-1.387-1.574-.329-.674-.494-1.462-.494-2.363 0-.91.165-1.703.494-2.38.334-.679.796-1.205 1.387-1.58.594-.375 1.286-.563 2.073-.563.788 0 1.478.188 2.069.563.594.375 1.056.901 1.386 1.58.333.677.5 1.47.5 2.38 0 .901-.167 1.69-.5 2.363-.33.675-.792 1.2-1.386 1.574-.591.375-1.281.563-2.069.563zm0-1.205c.599 0 1.091-.153 1.478-.46a2.72 2.72 0 00.858-1.21c.185-.5.278-1.042.278-1.625 0-.584-.093-1.127-.278-1.63a2.755 2.755 0 00-.858-1.222c-.387-.311-.879-.466-1.478-.466-.598 0-1.09.155-1.477.466-.386.31-.672.717-.858 1.221a4.695 4.695 0 00-.278 1.63c0 .584.093 1.126.278 1.626.186.5.472.903.858 1.21.387.307.879.46 1.477.46zM185.993 44v-8.727h1.295v1.318h.091c.159-.432.447-.782.864-1.051a2.541 2.541 0 011.409-.404c.098 0 .222.002.369.006.148.004.26.01.336.017v1.364a4.073 4.073 0 00-.313-.051 3.08 3.08 0 00-.506-.04c-.424 0-.803.089-1.136.267a2.01 2.01 0 00-.784.727 1.964 1.964 0 00-.284 1.051V44h-1.341zm7.203-3.182l-.023-1.659h.273l3.818-3.886h1.659l-4.068 4.113h-.114l-1.545 1.432zM191.946 44V32.364h1.341V44h-1.341zm5.545 0l-3.409-4.318.955-.932 4.159 5.25h-1.705zm4.908-3.273v-.068c.008-.723.083-1.3.227-1.727.144-.428.349-.775.614-1.04s.583-.51.955-.733a2.97 2.97 0 00.602-.483 2.143 2.143 0 00.579-1.471c0-.372-.087-.694-.261-.966a1.751 1.751 0 00-.699-.631 2.114 2.114 0 00-.971-.222c-.311 0-.61.065-.898.194a1.737 1.737 0 00-.722.608c-.193.276-.305.638-.335 1.085h-1.432c.031-.644.197-1.195.5-1.654.307-.458.71-.808 1.21-1.05a3.819 3.819 0 011.677-.364c.666 0 1.246.132 1.738.397a2.85 2.85 0 011.148 1.091c.273.462.409.989.409 1.58 0 .416-.064.793-.193 1.13a2.78 2.78 0 01-.546.904 3.73 3.73 0 01-.852.704 3.54 3.54 0 00-.801.66 2.065 2.065 0 00-.437.812c-.091.314-.141.706-.148 1.176v.068h-1.364zm.727 3.364c-.28 0-.52-.1-.721-.301a.983.983 0 01-.301-.722c0-.28.1-.52.301-.721a.984.984 0 01.721-.302c.281 0 .521.1.722.302.201.2.301.44.301.721a.96.96 0 01-.142.512c-.091.155-.214.28-.369.375a.976.976 0 01-.512.136z" fill="#535353"/>
    </g>
  </g>
  <defs>
    <clipPath id="tTVe-wMBzWNvb">
      <rect x="8" y="4" width="688" height="76" rx="15" fill="#fff"/>
    </clipPath>
    <clipPath id="tTVe-wMBzWNvc">
      <path fill="#fff" transform="translate(27 27)" d="M0 0h30v34.286H0z"/>
    </clipPath>
    <filter id="tTVe-wMBzWNva" x="0" y="0" width="704" height="92" filterUnits="userSpaceOnUse" color-interpolation-filters="sRGB">
      <feFlood flood-opacity="0" result="BackgroundImageFix"/>
      <feColorMatrix in="SourceAlpha" type="matrix" values="0 0 0 0 0 0 0 0 0 0 0 0 0 0 0 0 0 0 127 0" result="hardAlpha"/>
      <feOffset dy="4"/>
      <feGaussianBlur stdDeviation="4"/>
      <feComposite in2="hardAlpha" operator="out"/>
      <feColorMatrix type="matrix" values="0 0 0 0 0 0 0 0 0 0 0 0 0 0 0 0 0 0 0.2 0"/>
      <feBlend mode="normal" in2="BackgroundImageFix" result="effect1_dropShadow_518_4469"/>
      <feBlend mode="normal" in="SourceGraphic" in2="effect1_dropShadow_518_4469" result="shape"/>
    </filter>
  </defs>
</svg>
