<svg fill="none" xmlns="http://www.w3.org/2000/svg" viewBox="0 0 704 92">
  <g filter="url(#SU9C-8ILxYWla)">
    <g clip-path="url(#SU9C-8ILxYWlb)">
      <rect x="8" y="4" width="688" height="76" rx="15" fill="#fff"/>
      <rect x="24" y="25" width="36" height="36" rx="7" fill="#000"/>
      <g clip-path="url(#SU9C-8ILxYWlc)">
        <mask id="SU9C-8ILxYWld" style="mask-type:luminance" maskUnits="userSpaceOnUse" x="27" y="27" width="30" height="35">
          <path d="M27 27h30v34.286H27V27z" fill="#fff"/>
        </mask>
        <g mask="url(#SU9C-8ILxYWld)">
          <path d="M42 44.143a8.57 8.57 0 008.571-8.572A8.57 8.57 0 0042 27a8.57 8.57 0 00-8.571 8.571A8.57 8.57 0 0042 44.143zm6 2.143h-1.118A11.67 11.67 0 0142 47.357c-1.741 0-3.388-.388-4.882-1.071H36c-4.969 0-9 4.031-9 9v2.785a3.215 3.215 0 003.214 3.215h23.572A3.215 3.215 0 0057 58.07v-2.785c0-4.969-4.031-9-9-9z" fill="#fff"/>
        </g>
      </g>
      <path d="M80.636 32.364V44h-1.363l-6.341-9.136h-.114V44H71.41V32.364h1.364l6.363 9.159h.114v-9.16h1.386zM83.274 44v-8.727h1.341V44h-1.34zm.682-10.182a.953.953 0 01-.676-.267.858.858 0 01-.279-.642c0-.25.093-.464.279-.642a.954.954 0 01.676-.267c.261 0 .485.089.67.267a.85.85 0 01.284.642.85.85 0 01-.284.642.934.934 0 01-.67.267zm6.66 10.364c-.818 0-1.522-.193-2.113-.58a3.777 3.777 0 01-1.364-1.596c-.318-.678-.477-1.453-.477-2.324 0-.887.163-1.669.489-2.347.33-.682.787-1.214 1.375-1.596.59-.387 1.28-.58 2.068-.58.613 0 1.166.114 1.659.341.492.227.896.545 1.21.955.315.409.51.886.585 1.431h-1.34c-.103-.397-.33-.75-.682-1.056-.349-.311-.819-.466-1.41-.466-.522 0-.98.136-1.374.409-.39.269-.696.65-.915 1.142-.216.488-.324 1.062-.324 1.721 0 .675.106 1.262.318 1.762.216.5.519.888.91 1.164.393.277.855.415 1.386.415.348 0 .664-.06.948-.181.284-.122.525-.296.722-.523.197-.228.337-.5.42-.819h1.341c-.076.516-.263.98-.562 1.393a3.158 3.158 0 01-1.176.977c-.485.239-1.05.358-1.694.358zm9.052 0c-.841 0-1.567-.186-2.177-.557a3.737 3.737 0 01-1.403-1.568c-.326-.674-.489-1.459-.489-2.352 0-.894.163-1.682.49-2.364.329-.686.787-1.22 1.374-1.602.591-.387 1.28-.58 2.068-.58.455 0 .904.076 1.347.227a3.34 3.34 0 011.21.739c.364.337.653.784.869 1.34.216.558.324 1.243.324 2.058v.568h-6.727v-1.16h5.364c0-.492-.099-.931-.296-1.317a2.23 2.23 0 00-.829-.915c-.356-.224-.777-.335-1.262-.335-.534 0-.996.132-1.386.397a2.616 2.616 0 00-.892 1.023c-.209.42-.313.871-.313 1.352v.773c0 .66.114 1.218.341 1.676.231.455.551.801.96 1.04.41.235.885.352 1.427.352.352 0 .67-.049.954-.147.288-.103.536-.254.744-.455.209-.205.37-.458.483-.761l1.296.363a2.87 2.87 0 01-.688 1.16 3.344 3.344 0 01-1.193.772 4.42 4.42 0 01-1.596.273zm7.426-11.818l-.114 8.363h-1.318l-.114-8.363h1.546zm-.773 11.727c-.28 0-.521-.1-.722-.301a.987.987 0 01-.301-.722c0-.28.101-.52.301-.721a.986.986 0 01.722-.302c.28 0 .521.1.722.302.2.2.301.44.301.721a1.058 1.058 0 01-.512.886.972.972 0 01-.511.137zm5.226-11.727l-.114 8.363h-1.318l-.114-8.363h1.546zm-.773 11.727c-.28 0-.521-.1-.721-.301a.984.984 0 01-.302-.722c0-.28.101-.52.302-.721a.982.982 0 01.721-.302c.28 0 .521.1.722.302.2.2.301.44.301.721a.96.96 0 01-.142.512c-.091.155-.214.28-.369.375a.976.976 0 01-.512.136zm7.499-10.477v-1.25H127v1.25h-3.659V44h-1.409V33.614h-3.659zm12.061 5.136V44h-1.341V32.364h1.341v4.272h.113c.205-.45.512-.808.921-1.074.413-.268.962-.403 1.648-.403.594 0 1.115.12 1.562.358a2.41 2.41 0 011.04 1.085c.25.485.375 1.103.375 1.853V44h-1.341v-5.455c0-.693-.18-1.229-.54-1.608-.356-.382-.85-.573-1.483-.573-.439 0-.833.092-1.182.278a2.04 2.04 0 00-.818.813c-.197.356-.295.787-.295 1.295zm8.112 5.25v-8.727h1.341V44h-1.341zm.682-10.182a.951.951 0 01-.676-.267.857.857 0 01-.279-.642c0-.25.093-.464.279-.642a.951.951 0 01.676-.267c.261 0 .485.089.67.267.19.178.284.392.284.642s-.094.464-.284.642a.932.932 0 01-.67.267zm9.297 3.41l-1.205.34a2.233 2.233 0 00-.335-.585 1.628 1.628 0 00-.591-.477c-.25-.125-.57-.188-.96-.188-.534 0-.979.123-1.335.37-.353.242-.529.55-.529.926 0 .333.121.596.364.79.242.193.621.354 1.136.482l1.296.319c.78.189 1.361.479 1.744.869.383.386.574.884.574 1.494 0 .5-.144.947-.432 1.341-.284.394-.682.705-1.193.932-.512.227-1.106.34-1.784.34-.89 0-1.627-.192-2.211-.579-.583-.386-.952-.95-1.107-1.693l1.272-.318c.121.47.351.822.688 1.057.341.235.786.352 1.335.352.625 0 1.121-.133 1.489-.398.371-.269.556-.59.556-.966 0-.303-.106-.556-.318-.761-.212-.208-.538-.364-.977-.466l-1.455-.34c-.799-.19-1.386-.484-1.761-.882-.371-.401-.557-.903-.557-1.505 0-.493.139-.928.415-1.307a2.82 2.82 0 011.142-.892c.485-.216 1.034-.324 1.648-.324.863 0 1.541.19 2.034.568.496.38.848.88 1.057 1.5zm8.018-4.864V44h-1.341V32.364h1.341zm6.002 11.818c-.788 0-1.48-.188-2.074-.563-.591-.375-1.053-.9-1.387-1.574-.329-.674-.494-1.462-.494-2.363 0-.91.165-1.703.494-2.38.334-.679.796-1.205 1.387-1.58.594-.375 1.286-.563 2.074-.563.787 0 1.477.188 2.068.563.594.375 1.057.901 1.386 1.58.333.677.5 1.47.5 2.38 0 .901-.167 1.69-.5 2.363a3.77 3.77 0 01-1.386 1.574c-.591.375-1.281.563-2.068.563zm0-1.205c.598 0 1.091-.153 1.477-.46a2.72 2.72 0 00.858-1.21c.185-.5.278-1.042.278-1.625 0-.584-.093-1.127-.278-1.63a2.755 2.755 0 00-.858-1.222c-.386-.311-.879-.466-1.477-.466-.599 0-1.091.155-1.478.466-.386.31-.672.717-.858 1.221a4.695 4.695 0 00-.278 1.63c0 .584.093 1.126.278 1.626.186.5.472.903.858 1.21.387.307.879.46 1.478.46zm9.546 1.205c-.787 0-1.479-.188-2.073-.563-.591-.375-1.053-.9-1.387-1.574-.329-.674-.494-1.462-.494-2.363 0-.91.165-1.703.494-2.38.334-.679.796-1.205 1.387-1.58.594-.375 1.286-.563 2.073-.563.788 0 1.478.188 2.069.563.594.375 1.056.901 1.386 1.58.333.677.5 1.47.5 2.38 0 .901-.167 1.69-.5 2.363-.33.675-.792 1.2-1.386 1.574-.591.375-1.281.563-2.069.563zm0-1.205c.599 0 1.091-.153 1.478-.46a2.72 2.72 0 00.858-1.21c.185-.5.278-1.042.278-1.625 0-.584-.093-1.127-.278-1.63a2.755 2.755 0 00-.858-1.222c-.387-.311-.879-.466-1.478-.466-.598 0-1.09.155-1.477.466-.386.31-.672.717-.858 1.221a4.695 4.695 0 00-.278 1.63c0 .584.093 1.126.278 1.626.186.5.472.903.858 1.21.387.307.879.46 1.477.46zm7.252-2.159l-.023-1.659h.273l3.818-3.886h1.659l-4.068 4.113h-.114l-1.545 1.432zM177.993 44V32.364h1.341V44h-1.341zm5.545 0l-3.409-4.318.955-.932 4.159 5.25h-1.705zm9.34-6.773l-1.205.341a2.206 2.206 0 00-.335-.585 1.628 1.628 0 00-.591-.477c-.25-.125-.57-.188-.96-.188-.534 0-.979.123-1.335.37-.353.242-.529.55-.529.926 0 .333.122.596.364.79.242.193.621.354 1.136.482l1.296.319c.78.189 1.361.479 1.744.869.383.386.574.884.574 1.494 0 .5-.144.947-.432 1.341-.284.394-.682.705-1.193.932-.511.227-1.106.34-1.784.34-.89 0-1.627-.192-2.21-.579-.584-.386-.953-.95-1.108-1.693l1.272-.318c.122.47.351.822.688 1.057.341.235.786.352 1.335.352.625 0 1.121-.133 1.489-.398.371-.269.557-.59.557-.966 0-.303-.106-.556-.319-.761-.212-.208-.537-.364-.977-.466l-1.454-.34c-.8-.19-1.387-.484-1.762-.882-.371-.401-.557-.903-.557-1.505 0-.493.139-.928.415-1.307a2.82 2.82 0 011.142-.892c.485-.216 1.034-.324 1.648-.324.864 0 1.542.19 2.034.568.496.38.849.88 1.057 1.5zm10.2 10.228c-.648 0-1.204-.084-1.67-.25a3.546 3.546 0 01-1.165-.648 3.542 3.542 0 01-.733-.852l1.068-.75c.121.159.275.34.46.545.186.208.44.388.762.54.325.155.752.233 1.278.233.705 0 1.286-.17 1.744-.512.459-.34.688-.875.688-1.602v-1.773h-.114c-.098.16-.238.356-.42.591-.178.231-.436.438-.773.62-.333.178-.784.267-1.352.267a3.646 3.646 0 01-1.898-.5c-.557-.334-.998-.819-1.324-1.455-.322-.636-.483-1.409-.483-2.318 0-.894.158-1.672.472-2.335.314-.667.752-1.182 1.312-1.546.561-.367 1.209-.55 1.944-.55.568 0 1.019.094 1.352.283.337.186.595.398.773.637.181.234.322.428.42.58h.136v-1.387h1.296v8.977c0 .75-.171 1.36-.512 1.83a2.91 2.91 0 01-1.363 1.04 5.155 5.155 0 01-1.898.335zm-.045-4.796c.538 0 .992-.123 1.363-.37.372-.245.654-.6.847-1.062.193-.462.29-1.015.29-1.659 0-.629-.095-1.183-.284-1.665-.19-.48-.47-.858-.841-1.13-.372-.273-.83-.41-1.375-.41-.569 0-1.042.145-1.421.432a2.625 2.625 0 00-.846 1.16 4.473 4.473 0 00-.279 1.613c0 .606.095 1.142.284 1.608.193.462.478.826.853 1.091.378.261.848.392 1.409.392zm9.818 1.523c-.788 0-1.479-.188-2.074-.563-.591-.375-1.053-.9-1.386-1.574-.33-.674-.495-1.462-.495-2.363 0-.91.165-1.703.495-2.38.333-.679.795-1.205 1.386-1.58.595-.375 1.286-.563 2.074-.563.788 0 1.477.188 2.068.563.595.375 1.057.901 1.386 1.58.334.677.5 1.47.5 2.38 0 .901-.166 1.69-.5 2.363a3.763 3.763 0 01-1.386 1.574c-.591.375-1.28.563-2.068.563zm0-1.205c.598 0 1.091-.153 1.477-.46a2.72 2.72 0 00.858-1.21c.186-.5.278-1.042.278-1.625 0-.584-.092-1.127-.278-1.63a2.755 2.755 0 00-.858-1.222c-.386-.311-.879-.466-1.477-.466-.599 0-1.091.155-1.477.466a2.74 2.74 0 00-.858 1.221 4.672 4.672 0 00-.279 1.63c0 .584.093 1.126.279 1.626.185.5.471.903.858 1.21.386.307.878.46 1.477.46zm9.547 1.205c-.788 0-1.479-.188-2.074-.563-.591-.375-1.053-.9-1.386-1.574-.33-.674-.495-1.462-.495-2.363 0-.91.165-1.703.495-2.38.333-.679.795-1.205 1.386-1.58.595-.375 1.286-.563 2.074-.563.788 0 1.477.188 2.068.563.595.375 1.057.901 1.386 1.58.334.677.5 1.47.5 2.38 0 .901-.166 1.69-.5 2.363a3.763 3.763 0 01-1.386 1.574c-.591.375-1.28.563-2.068.563zm0-1.205c.598 0 1.091-.153 1.477-.46a2.72 2.72 0 00.858-1.21c.186-.5.278-1.042.278-1.625 0-.584-.092-1.127-.278-1.63a2.755 2.755 0 00-.858-1.222c-.386-.311-.879-.466-1.477-.466-.599 0-1.091.155-1.478.466-.386.31-.672.717-.858 1.221a4.695 4.695 0 00-.278 1.63c0 .584.093 1.126.278 1.626.186.5.472.903.858 1.21.387.307.879.46 1.478.46zm9.297 1.205c-.728 0-1.37-.184-1.927-.551-.556-.371-.992-.894-1.306-1.569-.315-.677-.472-1.479-.472-2.403 0-.917.157-1.712.472-2.386.314-.675.752-1.195 1.312-1.563.561-.367 1.208-.55 1.943-.55.569 0 1.017.094 1.347.283.333.186.587.398.761.637.178.234.317.428.415.58h.114v-4.296h1.341V44h-1.296v-1.34h-.159a8.7 8.7 0 01-.42.601c-.182.239-.442.453-.779.642-.337.186-.786.279-1.346.279zm.181-1.205c.538 0 .993-.14 1.364-.42.371-.284.653-.676.847-1.176.193-.504.289-1.086.289-1.745 0-.651-.094-1.221-.284-1.71-.189-.492-.469-.875-.841-1.148-.371-.276-.829-.414-1.375-.414-.568 0-1.041.146-1.42.437-.375.288-.657.68-.847 1.176a4.689 4.689 0 00-.278 1.66c0 .62.095 1.185.284 1.693.193.503.477.905.852 1.204.379.296.849.443 1.409.443zm7.438 1.114c-.28 0-.521-.1-.722-.301a.987.987 0 01-.301-.722c0-.28.101-.52.301-.721a.986.986 0 01.722-.302c.28 0 .521.1.722.302.2.2.301.44.301.721a1.058 1.058 0 01-.512.886.972.972 0 01-.511.137zm8.111-11.727h1.682l3.954 9.659h.136l3.955-9.66h1.682V44h-1.318v-8.84h-.114L253.766 44h-1.273l-3.636-8.84h-.114V44h-1.318V32.364zm16.62 11.84a3.543 3.543 0 01-1.505-.312 2.582 2.582 0 01-1.074-.915c-.265-.401-.398-.886-.398-1.454 0-.5.099-.906.296-1.216.197-.315.46-.56.789-.739a4.2 4.2 0 011.091-.398c.402-.09.805-.162 1.211-.215.53-.069.96-.12 1.289-.154.334-.038.576-.1.728-.187.155-.087.233-.239.233-.455v-.045c0-.561-.154-.997-.461-1.307-.303-.31-.763-.466-1.38-.466-.641 0-1.142.14-1.506.42-.364.28-.619.58-.767.898l-1.273-.454c.227-.53.53-.944.909-1.24.383-.298.8-.507 1.25-.624a5.196 5.196 0 011.341-.182c.28 0 .602.034.966.102.368.065.722.2 1.063.404.344.204.63.513.858.926.227.413.34.966.34 1.659V44h-1.34v-1.182h-.069c-.091.19-.242.392-.454.608-.212.216-.494.4-.847.551-.352.152-.782.228-1.29.228zM264.25 43c.53 0 .977-.104 1.341-.313.367-.208.644-.477.829-.806.19-.33.285-.676.285-1.04v-1.227c-.057.068-.182.13-.375.187-.19.053-.41.1-.66.142a29.56 29.56 0 01-1.284.17 5.19 5.19 0 00-.977.222 1.681 1.681 0 00-.727.45c-.182.196-.273.465-.273.806 0 .466.172.818.517 1.057.349.235.79.352 1.324.352zm7.493-2.182l-.023-1.659h.273l3.818-3.886h1.659l-4.068 4.113h-.114l-1.545 1.432zM270.493 44V32.364h1.341V44h-1.341zm5.545 0l-3.409-4.318.955-.932 4.159 5.25h-1.705zm6.458.182c-.841 0-1.567-.186-2.176-.557a3.742 3.742 0 01-1.404-1.568c-.326-.674-.488-1.459-.488-2.352 0-.894.162-1.682.488-2.364.33-.686.788-1.22 1.375-1.602.591-.387 1.28-.58 2.068-.58.455 0 .904.076 1.347.227.443.152.847.398 1.21.739.364.337.654.784.87 1.34.215.558.323 1.243.323 2.058v.568h-6.727v-1.16h5.364c0-.492-.099-.931-.296-1.317a2.223 2.223 0 00-.829-.915c-.356-.224-.777-.335-1.262-.335-.534 0-.996.132-1.386.397a2.615 2.615 0 00-.892 1.023 3.01 3.01 0 00-.313 1.352v.773c0 .66.114 1.218.341 1.676.231.455.552.801.961 1.04.409.235.884.352 1.426.352.352 0 .67-.049.954-.147.288-.103.536-.254.745-.455.208-.205.369-.458.483-.761l1.295.363c-.136.44-.366.826-.687 1.16a3.35 3.35 0 01-1.194.772 4.42 4.42 0 01-1.596.273zM292.649 44v-8.727h1.296v1.363h.113c.182-.466.476-.827.881-1.085.405-.261.892-.392 1.46-.392.576 0 1.055.13 1.438.392.386.258.687.62.903 1.085h.091a2.54 2.54 0 011.006-1.074c.447-.268.983-.403 1.608-.403.78 0 1.418.244 1.914.733.497.485.745 1.24.745 2.267V44h-1.341v-5.84c0-.645-.176-1.105-.529-1.382a1.955 1.955 0 00-1.244-.414c-.614 0-1.089.185-1.426.556-.337.368-.506.834-.506 1.398V44h-1.363v-5.977c0-.497-.161-.896-.483-1.2-.322-.306-.737-.46-1.245-.46-.348 0-.674.093-.977.279a2.1 2.1 0 00-.727.773 2.28 2.28 0 00-.273 1.13V44h-1.341zm17.565.182c-.84 0-1.566-.186-2.176-.557a3.733 3.733 0 01-1.403-1.568c-.326-.674-.489-1.459-.489-2.352 0-.894.163-1.682.489-2.364.329-.686.788-1.22 1.375-1.602.591-.387 1.28-.58 2.068-.58.455 0 .904.076 1.347.227a3.34 3.34 0 011.21.739c.364.337.653.784.869 1.34.216.558.324 1.243.324 2.058v.568h-6.727v-1.16h5.363c0-.492-.098-.931-.295-1.317a2.225 2.225 0 00-.83-.915c-.356-.224-.776-.335-1.261-.335-.534 0-.996.132-1.386.397a2.608 2.608 0 00-.892 1.023c-.209.42-.313.871-.313 1.352v.773c0 .66.114 1.218.341 1.676.231.455.551.801.96 1.04.409.235.885.352 1.426.352a2.9 2.9 0 00.955-.147c.288-.103.536-.254.744-.455.209-.205.37-.458.483-.761l1.296.363a2.88 2.88 0 01-.688 1.16 3.344 3.344 0 01-1.193.772 4.426 4.426 0 01-1.597.273zm12.722.023a3.548 3.548 0 01-1.506-.313 2.585 2.585 0 01-1.073-.915c-.266-.401-.398-.886-.398-1.454 0-.5.098-.906.295-1.216.197-.315.46-.56.79-.739.33-.178.693-.31 1.091-.398.401-.09.805-.162 1.21-.215.53-.069.96-.12 1.29-.154.333-.038.576-.1.727-.187.156-.087.233-.239.233-.455v-.045c0-.561-.153-.997-.46-1.307-.303-.31-.763-.466-1.381-.466-.64 0-1.142.14-1.505.42-.364.28-.62.58-.767.898l-1.273-.454c.227-.53.53-.944.909-1.24a3.411 3.411 0 011.25-.624 5.184 5.184 0 011.341-.182c.28 0 .602.034.966.102.367.065.721.2 1.062.404.345.204.631.513.858.926.227.413.341.966.341 1.659V44h-1.341v-1.182h-.068c-.091.19-.242.392-.455.608-.212.216-.494.4-.846.551-.352.152-.782.228-1.29.228zm.205-1.205c.53 0 .977-.104 1.341-.313a2.131 2.131 0 001.113-1.846v-1.227c-.057.068-.182.13-.375.187a6.29 6.29 0 01-.659.142 29.629 29.629 0 01-1.284.17 5.19 5.19 0 00-.977.222 1.68 1.68 0 00-.728.45c-.181.196-.272.465-.272.806 0 .466.172.818.517 1.057.348.235.79.352 1.324.352zm10.924 1V32.364h6.978v1.25h-5.569v3.931h5.046v1.25h-5.046V44h-1.409zm11.777.205a3.54 3.54 0 01-1.505-.313 2.582 2.582 0 01-1.074-.915c-.265-.401-.398-.886-.398-1.454 0-.5.099-.906.296-1.216.196-.315.46-.56.789-.739.33-.178.693-.31 1.091-.398.402-.09.805-.162 1.21-.215.531-.069.961-.12 1.29-.154.334-.038.576-.1.727-.187.156-.087.233-.239.233-.455v-.045c0-.561-.153-.997-.46-1.307-.303-.31-.763-.466-1.38-.466-.641 0-1.143.14-1.506.42-.364.28-.619.58-.767.898l-1.273-.454c.227-.53.53-.944.909-1.24a3.419 3.419 0 011.25-.624 5.196 5.196 0 011.341-.182c.28 0 .602.034.966.102.367.065.722.2 1.062.404.345.204.631.513.858.926.228.413.341.966.341 1.659V44h-1.341v-1.182h-.068c-.091.19-.242.392-.454.608-.212.216-.495.4-.847.551-.352.152-.782.228-1.29.228zm.205-1.205c.53 0 .977-.104 1.341-.313a2.124 2.124 0 001.113-1.846v-1.227c-.056.068-.181.13-.375.187a6.29 6.29 0 01-.659.142 29.56 29.56 0 01-1.284.17 5.19 5.19 0 00-.977.222 1.681 1.681 0 00-.727.45c-.182.196-.273.465-.273.806 0 .466.172.818.517 1.057.348.235.79.352 1.324.352zm9.788 1.182c-.818 0-1.522-.193-2.113-.58a3.776 3.776 0 01-1.364-1.596c-.318-.678-.477-1.453-.477-2.324 0-.887.163-1.669.488-2.347.33-.682.788-1.214 1.375-1.596.591-.387 1.281-.58 2.068-.58.614 0 1.167.114 1.66.341.492.227.895.545 1.21.955.314.409.509.886.585 1.431h-1.341c-.102-.397-.329-.75-.682-1.056-.348-.311-.818-.466-1.409-.466-.522 0-.981.136-1.375.409-.39.269-.695.65-.915 1.142-.215.488-.323 1.062-.323 1.721 0 .675.106 1.262.318 1.762.216.5.519.888.909 1.164.394.277.856.415 1.386.415.349 0 .665-.06.949-.181a1.96 1.96 0 00.722-.523c.197-.228.337-.5.42-.819h1.341c-.076.516-.263.98-.562 1.393a3.153 3.153 0 01-1.177.977c-.484.239-1.049.358-1.693.358zm9.051 0c-.841 0-1.566-.186-2.176-.557a3.733 3.733 0 01-1.403-1.568c-.326-.674-.489-1.459-.489-2.352 0-.894.163-1.682.489-2.364.329-.686.788-1.22 1.375-1.602.591-.387 1.28-.58 2.068-.58.455 0 .903.076 1.347.227a3.34 3.34 0 011.21.739c.363.337.653.784.869 1.34.216.558.324 1.243.324 2.058v.568h-6.727v-1.16h5.363c0-.492-.098-.931-.295-1.317a2.225 2.225 0 00-.83-.915c-.356-.224-.776-.335-1.261-.335-.534 0-.996.132-1.386.397a2.608 2.608 0 00-.892 1.023c-.209.42-.313.871-.313 1.352v.773c0 .66.114 1.218.341 1.676.231.455.551.801.96 1.04.409.235.885.352 1.426.352a2.9 2.9 0 00.955-.147c.288-.103.536-.254.744-.455.209-.205.37-.458.483-.761l1.296.363a2.88 2.88 0 01-.688 1.16c-.322.329-.72.587-1.193.772a4.43 4.43 0 01-1.597.273zm5.836-.182V32.364h1.34v4.295h.114c.099-.151.235-.345.409-.58.178-.238.432-.45.762-.636.333-.19.784-.284 1.352-.284.735 0 1.382.184 1.943.551.561.368.998.889 1.313 1.563.314.674.471 1.47.471 2.386 0 .924-.157 1.726-.471 2.404-.315.674-.75 1.197-1.307 1.568-.557.367-1.199.55-1.926.55-.561 0-1.01-.092-1.347-.278-.337-.189-.597-.403-.778-.642a8.77 8.77 0 01-.421-.602h-.159V44h-1.295zm1.318-4.364c0 .66.096 1.24.29 1.745.193.5.475.892.846 1.176.371.28.826.42 1.364.42.56 0 1.028-.147 1.403-.443.379-.3.663-.7.852-1.204.194-.508.29-1.072.29-1.694 0-.613-.094-1.166-.284-1.659-.185-.496-.468-.888-.846-1.176-.375-.291-.847-.437-1.415-.437-.546 0-1.004.138-1.375.414-.371.273-.652.656-.841 1.148-.19.489-.284 1.059-.284 1.71zm11.983 4.546c-.788 0-1.479-.188-2.074-.563-.591-.375-1.053-.9-1.387-1.574-.329-.674-.494-1.462-.494-2.363 0-.91.165-1.703.494-2.38.334-.679.796-1.205 1.387-1.58.595-.375 1.286-.563 2.074-.563.788 0 1.477.188 2.068.563.595.375 1.057.901 1.386 1.58.334.677.5 1.47.5 2.38 0 .901-.166 1.69-.5 2.363a3.763 3.763 0 01-1.386 1.574c-.591.375-1.28.563-2.068.563zm0-1.205c.598 0 1.091-.153 1.477-.46a2.72 2.72 0 00.858-1.21c.186-.5.278-1.042.278-1.625 0-.584-.092-1.127-.278-1.63a2.755 2.755 0 00-.858-1.222c-.386-.311-.879-.466-1.477-.466-.599 0-1.091.155-1.478.466-.386.31-.672.717-.857 1.221a4.672 4.672 0 00-.279 1.63c0 .584.093 1.126.279 1.626.185.5.471.903.857 1.21.387.307.879.46 1.478.46zm9.547 1.205c-.788 0-1.48-.188-2.074-.563-.591-.375-1.053-.9-1.387-1.574-.329-.674-.494-1.462-.494-2.363 0-.91.165-1.703.494-2.38.334-.679.796-1.205 1.387-1.58.594-.375 1.286-.563 2.074-.563.787 0 1.477.188 2.068.563.594.375 1.057.901 1.386 1.58.333.677.5 1.47.5 2.38 0 .901-.167 1.69-.5 2.363a3.77 3.77 0 01-1.386 1.574c-.591.375-1.281.563-2.068.563zm0-1.205c.598 0 1.091-.153 1.477-.46a2.72 2.72 0 00.858-1.21c.185-.5.278-1.042.278-1.625 0-.584-.093-1.127-.278-1.63a2.755 2.755 0 00-.858-1.222c-.386-.311-.879-.466-1.477-.466-.599 0-1.091.155-1.478.466-.386.31-.672.717-.858 1.221a4.695 4.695 0 00-.278 1.63c0 .584.093 1.126.278 1.626.186.5.472.903.858 1.21.387.307.879.46 1.478.46zm7.251-2.159l-.023-1.659h.273l3.818-3.886h1.659l-4.068 4.113h-.114l-1.545 1.432zM399.571 44V32.364h1.341V44h-1.341zm5.545 0l-3.409-4.318.955-.932 4.159 5.25h-1.705zm10.226.205a3.54 3.54 0 01-1.505-.313 2.582 2.582 0 01-1.074-.915c-.265-.401-.398-.886-.398-1.454 0-.5.099-.906.296-1.216.196-.315.46-.56.789-.739.33-.178.693-.31 1.091-.398.402-.09.805-.162 1.21-.215.531-.069.961-.12 1.29-.154.334-.038.576-.1.727-.187.156-.087.233-.239.233-.455v-.045c0-.561-.153-.997-.46-1.307-.303-.31-.763-.466-1.38-.466-.641 0-1.143.14-1.506.42-.364.28-.619.58-.767.898l-1.273-.454c.227-.53.53-.944.909-1.24a3.419 3.419 0 011.25-.624 5.196 5.196 0 011.341-.182c.28 0 .602.034.966.102.367.065.722.2 1.062.404.345.204.631.513.858.926.228.413.341.966.341 1.659V44h-1.341v-1.182h-.068c-.091.19-.242.392-.454.608-.212.216-.495.4-.847.551-.352.152-.782.228-1.29.228zm.205-1.205c.53 0 .977-.104 1.341-.313a2.124 2.124 0 001.113-1.846v-1.227c-.056.068-.181.13-.375.187a6.29 6.29 0 01-.659.142 29.56 29.56 0 01-1.284.17 5.19 5.19 0 00-.977.222 1.681 1.681 0 00-.727.45c-.182.196-.273.465-.273.806 0 .466.172.818.517 1.057.348.235.79.352 1.324.352zm9.538 1.182c-.727 0-1.369-.184-1.926-.551-.557-.371-.992-.894-1.307-1.569-.314-.677-.471-1.479-.471-2.403 0-.917.157-1.712.471-2.386.315-.675.752-1.195 1.313-1.563.56-.367 1.208-.55 1.943-.55.568 0 1.017.094 1.347.283.333.186.587.398.761.637.178.234.316.428.415.58h.113v-4.296h1.341V44h-1.295v-1.34h-.159a8.77 8.77 0 01-.421.601c-.182.239-.441.453-.778.642-.337.186-.786.279-1.347.279zm.182-1.205c.538 0 .992-.14 1.364-.42.371-.284.653-.676.846-1.176.193-.504.29-1.086.29-1.745 0-.651-.095-1.221-.284-1.71-.189-.492-.47-.875-.841-1.148-.371-.276-.829-.414-1.375-.414-.568 0-1.042.146-1.42.437-.375.288-.658.68-.847 1.176a4.667 4.667 0 00-.278 1.66c0 .62.094 1.185.284 1.693.193.503.477.905.852 1.204.379.296.848.443 1.409.443zm14.756-7.704v1.136H435.5v-1.136h4.523zm-3.205-2.091h1.341V41.5c0 .379.055.663.165.852.114.186.257.31.432.375.178.06.365.091.562.091.148 0 .269-.007.364-.023l.227-.045.273 1.205a2.733 2.733 0 01-.381.102 2.8 2.8 0 01-.619.057 2.7 2.7 0 01-1.114-.245 2.215 2.215 0 01-.898-.744c-.234-.333-.352-.754-.352-1.261v-8.682zm8.673 11c-.787 0-1.479-.188-2.073-.563-.591-.375-1.053-.9-1.387-1.574-.329-.674-.494-1.462-.494-2.363 0-.91.165-1.703.494-2.38.334-.679.796-1.205 1.387-1.58.594-.375 1.286-.563 2.073-.563.788 0 1.478.188 2.069.563.594.375 1.056.901 1.386 1.58.333.677.5 1.47.5 2.38 0 .901-.167 1.69-.5 2.363-.33.675-.792 1.2-1.386 1.574-.591.375-1.281.563-2.069.563zm0-1.205c.599 0 1.091-.153 1.478-.46a2.72 2.72 0 00.858-1.21c.185-.5.278-1.042.278-1.625 0-.584-.093-1.127-.278-1.63a2.755 2.755 0 00-.858-1.222c-.387-.311-.879-.466-1.478-.466-.598 0-1.09.155-1.477.466-.386.31-.672.717-.858 1.221a4.695 4.695 0 00-.278 1.63c0 .584.093 1.126.278 1.626.186.5.472.903.858 1.21.387.307.879.46 1.477.46zm9.547 1.205c-.788 0-1.479-.188-2.074-.563-.59-.375-1.053-.9-1.386-1.574-.329-.674-.494-1.462-.494-2.363 0-.91.165-1.703.494-2.38.333-.679.796-1.205 1.386-1.58.595-.375 1.286-.563 2.074-.563.788 0 1.478.188 2.069.563.594.375 1.056.901 1.386 1.58.333.677.5 1.47.5 2.38 0 .901-.167 1.69-.5 2.363-.33.675-.792 1.2-1.386 1.574-.591.375-1.281.563-2.069.563zm0-1.205c.599 0 1.091-.153 1.478-.46a2.72 2.72 0 00.858-1.21c.185-.5.278-1.042.278-1.625 0-.584-.093-1.127-.278-1.63a2.755 2.755 0 00-.858-1.222c-.387-.311-.879-.466-1.478-.466-.598 0-1.091.155-1.477.466-.386.31-.672.717-.858 1.221a4.695 4.695 0 00-.278 1.63c0 .584.093 1.126.278 1.626.186.5.472.903.858 1.21.386.307.879.46 1.477.46z" fill="#535353"/>
    </g>
  </g>
  <defs>
    <clipPath id="SU9C-8ILxYWlb">
      <rect x="8" y="4" width="688" height="76" rx="15" fill="#fff"/>
    </clipPath>
    <clipPath id="SU9C-8ILxYWlc">
      <path fill="#fff" transform="translate(27 27)" d="M0 0h30v34.286H0z"/>
    </clipPath>
    <filter id="SU9C-8ILxYWla" x="0" y="0" width="704" height="92" filterUnits="userSpaceOnUse" color-interpolation-filters="sRGB">
      <feFlood flood-opacity="0" result="BackgroundImageFix"/>
      <feColorMatrix in="SourceAlpha" type="matrix" values="0 0 0 0 0 0 0 0 0 0 0 0 0 0 0 0 0 0 127 0" result="hardAlpha"/>
      <feOffset dy="4"/>
      <feGaussianBlur stdDeviation="4"/>
      <feComposite in2="hardAlpha" operator="out"/>
      <feColorMatrix type="matrix" values="0 0 0 0 0 0 0 0 0 0 0 0 0 0 0 0 0 0 0.2 0"/>
      <feBlend mode="normal" in2="BackgroundImageFix" result="effect1_dropShadow_513_4300"/>
      <feBlend mode="normal" in="SourceGraphic" in2="effect1_dropShadow_513_4300" result="shape"/>
    </filter>
  </defs>
</svg>
