<svg fill="none" xmlns="http://www.w3.org/2000/svg" viewBox="0 0 704 92">
  <g filter="url(#X5KJnxNj_rkLa)">
    <g clip-path="url(#X5KJnxNj_rkLb)">
      <rect x="8" y="4" width="688" height="76" rx="15" fill="#fff"/>
      <rect x="24" y="25" width="36" height="36" rx="7" fill="#000"/>
      <g clip-path="url(#X5KJnxNj_rkLc)">
        <mask id="X5KJnxNj_rkLd" style="mask-type:luminance" maskUnits="userSpaceOnUse" x="27" y="27" width="30" height="35">
          <path d="M27 27h30v34.286H27V27z" fill="#fff"/>
        </mask>
        <g mask="url(#X5KJnxNj_rkLd)">
          <path d="M42 44.143a8.57 8.57 0 008.571-8.572A8.57 8.57 0 0042 27a8.57 8.57 0 00-8.571 8.571A8.57 8.57 0 0042 44.143zm6 2.143h-1.118A11.67 11.67 0 0142 47.357c-1.741 0-3.388-.388-4.882-1.071H36c-4.969 0-9 4.031-9 9v2.785a3.215 3.215 0 003.214 3.215h23.572A3.215 3.215 0 0057 58.07v-2.785c0-4.969-4.031-9-9-9z" fill="#fff"/>
        </g>
      </g>
      <path d="M71.41 44V32.364h1.408V42.75h5.41V44h-6.819zm12.476.182c-.84 0-1.566-.186-2.176-.557a3.738 3.738 0 01-1.403-1.568c-.326-.674-.489-1.459-.489-2.352 0-.894.163-1.682.489-2.364.33-.686.788-1.22 1.375-1.602.59-.387 1.28-.58 2.068-.58.454 0 .903.076 1.347.227.443.152.846.398 1.21.739.364.337.653.784.87 1.34.215.558.323 1.243.323 2.058v.568h-6.727v-1.16h5.363c0-.492-.098-.931-.295-1.317a2.226 2.226 0 00-.83-.915c-.356-.224-.776-.335-1.261-.335-.534 0-.996.132-1.386.397a2.615 2.615 0 00-.892 1.023c-.209.42-.313.871-.313 1.352v.773c0 .66.114 1.218.341 1.676.231.455.551.801.96 1.04.41.235.885.352 1.426.352.353 0 .67-.049.955-.147.288-.103.536-.254.744-.455.209-.205.37-.458.483-.761l1.296.363c-.137.44-.366.826-.688 1.16-.322.329-.72.587-1.193.772a4.426 4.426 0 01-1.597.273zm9.45-8.91v1.137h-4.523v-1.136h4.522zm-3.205-2.09h1.34V41.5c0 .379.055.663.165.852.114.186.258.31.432.375.178.06.366.091.563.091.147 0 .269-.007.363-.023l.228-.045.272 1.205a2.72 2.72 0 01-.38.102 2.8 2.8 0 01-.62.057c-.379 0-.75-.082-1.113-.245a2.212 2.212 0 01-.898-.744c-.235-.333-.352-.754-.352-1.261v-8.682zm6.856-.818v1.022c0 .311-.057.642-.17.995-.11.348-.273.687-.489 1.017a3.6 3.6 0 01-.773.852l-.727-.59c.239-.342.445-.696.62-1.063a2.71 2.71 0 00.267-1.188v-1.045h1.272zm6.719 4.863l-1.205.341a2.206 2.206 0 00-.335-.585 1.628 1.628 0 00-.591-.477c-.25-.125-.57-.188-.96-.188-.534 0-.98.123-1.335.37-.352.242-.529.55-.529.926 0 .333.122.596.364.79.243.193.621.354 1.136.482l1.296.319c.78.189 1.362.479 1.744.869.383.386.574.884.574 1.494 0 .5-.144.947-.432 1.341-.284.394-.682.705-1.193.932-.511.227-1.106.34-1.784.34-.89 0-1.627-.192-2.21-.579-.584-.386-.953-.95-1.108-1.693l1.272-.318c.122.47.35.822.688 1.057.34.235.786.352 1.335.352.625 0 1.121-.133 1.489-.398.371-.269.557-.59.557-.966 0-.303-.106-.556-.318-.761-.213-.208-.538-.364-.978-.466l-1.454-.34c-.8-.19-1.387-.484-1.762-.882-.37-.401-.556-.903-.556-1.505 0-.493.138-.928.414-1.307a2.82 2.82 0 011.142-.892c.485-.216 1.034-.324 1.648-.324.864 0 1.542.19 2.034.568.496.38.849.88 1.057 1.5zm12.178 3.205v-5.16h1.34V44h-1.34v-1.477h-.091c-.205.443-.523.82-.955 1.13-.432.307-.977.46-1.636.46-.546 0-1.031-.119-1.455-.357-.424-.243-.757-.606-1-1.091-.242-.489-.363-1.104-.363-1.847v-5.545h1.34v5.454c0 .637.178 1.144.535 1.523.359.379.818.568 1.375.568a2.29 2.29 0 001.017-.255c.348-.171.64-.432.875-.785.238-.352.358-.8.358-1.346zm9.978-3.205l-1.204.341a2.238 2.238 0 00-.336-.585 1.616 1.616 0 00-.59-.477c-.25-.125-.571-.188-.961-.188-.534 0-.979.123-1.335.37-.352.242-.528.55-.528.926 0 .333.121.596.363.79.243.193.622.354 1.137.482l1.295.319c.78.189 1.362.479 1.744.869.383.386.574.884.574 1.494 0 .5-.144.947-.432 1.341-.284.394-.681.705-1.193.932-.511.227-1.106.34-1.784.34-.89 0-1.627-.192-2.21-.579-.583-.386-.953-.95-1.108-1.693l1.273-.318c.121.47.35.822.687 1.057.341.235.786.352 1.335.352.625 0 1.122-.133 1.489-.398.371-.269.557-.59.557-.966 0-.303-.106-.556-.318-.761-.212-.208-.538-.364-.978-.466l-1.454-.34c-.799-.19-1.386-.484-1.761-.882-.372-.401-.557-.903-.557-1.505 0-.493.138-.928.415-1.307a2.82 2.82 0 011.142-.892c.484-.216 1.034-.324 1.647-.324.864 0 1.542.19 2.034.568.497.38.849.88 1.057 1.5zm5.837 6.955c-.841 0-1.566-.186-2.176-.557a3.742 3.742 0 01-1.404-1.568c-.325-.674-.488-1.459-.488-2.352 0-.894.163-1.682.488-2.364.33-.686.788-1.22 1.375-1.602.591-.387 1.281-.58 2.068-.58.455 0 .904.076 1.347.227.443.152.847.398 1.21.739.364.337.654.784.87 1.34.216.558.323 1.243.323 2.058v.568h-6.727v-1.16h5.364c0-.492-.099-.931-.296-1.317a2.223 2.223 0 00-.829-.915c-.356-.224-.777-.335-1.262-.335-.534 0-.996.132-1.386.397a2.615 2.615 0 00-.892 1.023c-.208.42-.312.871-.312 1.352v.773c0 .66.113 1.218.34 1.676.232.455.552.801.961 1.04.409.235.884.352 1.426.352.352 0 .67-.049.954-.147.288-.103.536-.254.745-.455.208-.205.369-.458.483-.761l1.295.363a2.87 2.87 0 01-.687 1.16 3.35 3.35 0 01-1.194.772 4.42 4.42 0 01-1.596.273zm13.949-8.91v1.137h-4.523v-1.136h4.523zm-3.205-2.09h1.341V41.5c0 .379.055.663.165.852.114.186.257.31.432.375.178.06.365.091.562.091.148 0 .269-.007.364-.023l.227-.045.273 1.205a2.733 2.733 0 01-.381.102 2.8 2.8 0 01-.619.057 2.7 2.7 0 01-1.114-.245 2.215 2.215 0 01-.898-.744c-.234-.333-.352-.754-.352-1.261v-8.682zm6.75 5.568V44h-1.341V32.364h1.341v4.272h.114c.204-.45.511-.808.92-1.074.413-.268.962-.403 1.648-.403.595 0 1.116.12 1.563.358a2.41 2.41 0 011.039 1.085c.25.485.375 1.103.375 1.853V44h-1.341v-5.455c0-.693-.18-1.229-.539-1.608-.356-.382-.851-.573-1.483-.573-.44 0-.834.092-1.182.278a2.028 2.028 0 00-.818.813c-.197.356-.296.787-.296 1.295zm11.771 5.432c-.84 0-1.566-.186-2.176-.557a3.733 3.733 0 01-1.403-1.568c-.326-.674-.489-1.459-.489-2.352 0-.894.163-1.682.489-2.364.329-.686.788-1.22 1.375-1.602.591-.387 1.28-.58 2.068-.58.455 0 .904.076 1.347.227a3.34 3.34 0 011.21.739c.364.337.653.784.869 1.34.216.558.324 1.243.324 2.058v.568h-6.727v-1.16h5.363c0-.492-.098-.931-.295-1.317a2.225 2.225 0 00-.83-.915c-.356-.224-.776-.335-1.261-.335-.534 0-.996.132-1.386.397a2.608 2.608 0 00-.892 1.023c-.209.42-.313.871-.313 1.352v.773c0 .66.114 1.218.341 1.676.231.455.551.801.96 1.04.409.235.885.352 1.426.352a2.9 2.9 0 00.955-.147c.288-.103.536-.254.744-.455.209-.205.37-.458.483-.761l1.296.363a2.88 2.88 0 01-.688 1.16 3.344 3.344 0 01-1.193.772 4.426 4.426 0 01-1.597.273zm13.699 0c-.788 0-1.479-.188-2.074-.563-.59-.375-1.053-.9-1.386-1.574-.329-.674-.494-1.462-.494-2.363 0-.91.165-1.703.494-2.38.333-.679.796-1.205 1.386-1.58.595-.375 1.286-.563 2.074-.563.788 0 1.478.188 2.069.563.594.375 1.056.901 1.386 1.58.333.677.5 1.47.5 2.38 0 .901-.167 1.69-.5 2.363-.33.675-.792 1.2-1.386 1.574-.591.375-1.281.563-2.069.563zm0-1.205c.599 0 1.091-.153 1.478-.46a2.72 2.72 0 00.858-1.21c.185-.5.278-1.042.278-1.625 0-.584-.093-1.127-.278-1.63a2.755 2.755 0 00-.858-1.222c-.387-.311-.879-.466-1.478-.466-.598 0-1.091.155-1.477.466-.386.31-.672.717-.858 1.221a4.695 4.695 0 00-.278 1.63c0 .584.093 1.126.278 1.626.186.5.472.903.858 1.21.386.307.879.46 1.477.46zm7.343-4.227V44h-1.341v-8.727h1.295v1.363h.114c.204-.443.515-.799.932-1.068.416-.273.954-.409 1.613-.409.591 0 1.108.121 1.551.364.444.238.788.602 1.035 1.09.246.486.369 1.1.369 1.842V44h-1.341v-5.455c0-.685-.178-1.22-.534-1.602-.356-.386-.845-.58-1.466-.58a2.34 2.34 0 00-1.148.279 2 2 0 00-.79.813c-.193.356-.289.787-.289 1.295zm11.677 5.432c-.841 0-1.566-.186-2.176-.557a3.733 3.733 0 01-1.403-1.568c-.326-.674-.489-1.459-.489-2.352 0-.894.163-1.682.489-2.364.329-.686.788-1.22 1.375-1.602.591-.387 1.28-.58 2.068-.58.454 0 .903.076 1.346.227.444.152.847.398 1.211.739.363.337.653.784.869 1.34.216.558.324 1.243.324 2.058v.568h-6.727v-1.16h5.363c0-.492-.098-.931-.295-1.317a2.225 2.225 0 00-.83-.915c-.356-.224-.776-.335-1.261-.335-.534 0-.996.132-1.386.397a2.618 2.618 0 00-.893 1.023c-.208.42-.312.871-.312 1.352v.773c0 .66.114 1.218.341 1.676.231.455.551.801.96 1.04.409.235.885.352 1.426.352a2.9 2.9 0 00.955-.147c.288-.103.536-.254.744-.455.208-.205.369-.458.483-.761l1.296.363a2.88 2.88 0 01-.688 1.16c-.322.329-.72.587-1.193.772a4.43 4.43 0 01-1.597.273zm11.495-5.432V44h-1.341v-8.727h1.295v1.363h.114c.204-.443.515-.799.932-1.068.416-.273.954-.409 1.613-.409.591 0 1.108.121 1.551.364.444.238.788.602 1.034 1.09.247.486.37 1.1.37 1.842V44h-1.341v-5.455c0-.685-.178-1.22-.534-1.602-.356-.386-.845-.58-1.466-.58a2.34 2.34 0 00-1.148.279 2 2 0 00-.79.813c-.193.356-.289.787-.289 1.295zm10.586 5.455a3.54 3.54 0 01-1.505-.313 2.582 2.582 0 01-1.074-.915c-.265-.401-.398-.886-.398-1.454 0-.5.098-.906.295-1.216a2.09 2.09 0 01.79-.739c.33-.178.693-.31 1.091-.398.402-.09.805-.162 1.21-.215.531-.069.961-.12 1.29-.154.333-.038.576-.1.727-.187.156-.087.233-.239.233-.455v-.045c0-.561-.153-.997-.46-1.307-.303-.31-.763-.466-1.381-.466-.64 0-1.142.14-1.505.42-.364.28-.62.58-.767.898l-1.273-.454c.227-.53.53-.944.909-1.24a3.419 3.419 0 011.25-.624 5.196 5.196 0 011.341-.182c.28 0 .602.034.966.102.367.065.721.2 1.062.404.345.204.631.513.858.926.228.413.341.966.341 1.659V44h-1.341v-1.182h-.068c-.091.19-.242.392-.454.608-.213.216-.495.4-.847.551-.352.152-.782.228-1.29.228zm.205-1.205c.53 0 .977-.104 1.341-.313a2.124 2.124 0 001.113-1.846v-1.227c-.057.068-.182.13-.375.187a6.29 6.29 0 01-.659.142 30.27 30.27 0 01-1.284.17 5.19 5.19 0 00-.977.222 1.681 1.681 0 00-.727.45c-.182.196-.273.465-.273.806 0 .466.172.818.517 1.057.348.235.79.352 1.324.352zm6.243 1v-8.727h1.295v1.363h.114c.182-.466.475-.827.88-1.085.406-.261.892-.392 1.461-.392.575 0 1.055.13 1.437.392.387.258.688.62.904 1.085h.09c.224-.45.559-.808 1.006-1.074.447-.268.983-.403 1.608-.403.78 0 1.419.244 1.915.733.496.485.744 1.24.744 2.267V44h-1.341v-5.84c0-.645-.176-1.105-.528-1.382a1.955 1.955 0 00-1.244-.414c-.614 0-1.089.185-1.427.556-.337.368-.505.834-.505 1.398V44h-1.364v-5.977c0-.497-.161-.896-.483-1.2-.322-.306-.737-.46-1.244-.46-.349 0-.674.093-.977.279-.3.186-.542.443-.728.773a2.279 2.279 0 00-.272 1.13V44h-1.341zm17.565.182c-.841 0-1.566-.186-2.176-.557a3.742 3.742 0 01-1.404-1.568c-.325-.674-.488-1.459-.488-2.352 0-.894.163-1.682.488-2.364.33-.686.788-1.22 1.375-1.602.591-.387 1.281-.58 2.069-.58.454 0 .903.076 1.346.227.443.152.847.398 1.21.739.364.337.654.784.87 1.34.216.558.324 1.243.324 2.058v.568h-6.728v-1.16h5.364c0-.492-.098-.931-.295-1.317a2.232 2.232 0 00-.83-.915c-.356-.224-.777-.335-1.261-.335-.534 0-.997.132-1.387.397a2.623 2.623 0 00-.892 1.023c-.208.42-.312.871-.312 1.352v.773c0 .66.113 1.218.341 1.676.231.455.551.801.96 1.04.409.235.884.352 1.426.352.352 0 .67-.049.955-.147.287-.103.536-.254.744-.455.208-.205.369-.458.483-.761l1.295.363a2.87 2.87 0 01-.687 1.16c-.322.329-.72.587-1.193.772a4.43 4.43 0 01-1.597.273zm8.949 0c-.727 0-1.369-.184-1.926-.551-.557-.371-.993-.894-1.307-1.569-.314-.677-.472-1.479-.472-2.403 0-.917.158-1.712.472-2.386.314-.675.752-1.195 1.312-1.563.561-.367 1.209-.55 1.944-.55.568 0 1.017.094 1.346.283.334.186.587.398.762.637.178.234.316.428.414.58h.114v-4.296h1.341V44h-1.296v-1.34h-.159a8.522 8.522 0 01-.42.601c-.182.239-.441.453-.779.642-.337.186-.786.279-1.346.279zm.182-1.205c.538 0 .992-.14 1.363-.42.372-.284.654-.676.847-1.176.193-.504.29-1.086.29-1.745 0-.651-.095-1.221-.284-1.71-.19-.492-.47-.875-.841-1.148-.372-.276-.83-.414-1.375-.414-.569 0-1.042.146-1.421.437-.375.288-.657.68-.846 1.176a4.666 4.666 0 00-.279 1.66c0 .62.095 1.185.284 1.693.193.503.478.905.853 1.204.378.296.848.443 1.409.443zm7.437 1.114c-.28 0-.521-.1-.721-.301a.984.984 0 01-.302-.722c0-.28.101-.52.302-.721a.982.982 0 01.721-.302c.28 0 .521.1.722.302.201.2.301.44.301.721a.96.96 0 01-.142.512c-.091.155-.214.28-.369.375a.976.976 0 01-.512.136zm0-6.477c-.28 0-.521-.1-.721-.301a.984.984 0 01-.302-.722c0-.28.101-.52.302-.722.2-.2.441-.3.721-.3.28 0 .521.1.722.3a.985.985 0 01.301.722.961.961 0 01-.142.511 1.06 1.06 0 01-.369.375.977.977 0 01-.512.137zM263.82 36v-1.023c0-.31.055-.64.164-.988.114-.353.277-.692.489-1.017a3.66 3.66 0 01.778-.858l.728.59a7.532 7.532 0 00-.625 1.069 2.713 2.713 0 00-.262 1.181V36h-1.272zm13.642 2.182c0 1.227-.222 2.288-.665 3.182-.443.894-1.051 1.583-1.824 2.068-.773.485-1.655.727-2.648.727-.992 0-1.875-.242-2.647-.727-.773-.485-1.381-1.174-1.824-2.068-.443-.894-.665-1.955-.665-3.182 0-1.227.222-2.288.665-3.182.443-.894 1.051-1.583 1.824-2.068.772-.485 1.655-.727 2.647-.727.993 0 1.875.242 2.648.727.773.485 1.381 1.174 1.824 2.068.443.894.665 1.955.665 3.182zm-1.364 0c0-1.008-.169-1.858-.506-2.551-.333-.694-.786-1.218-1.358-1.574a3.52 3.52 0 00-1.909-.534c-.704 0-1.343.178-1.914.534-.569.356-1.021.88-1.358 1.574-.334.693-.5 1.543-.5 2.55 0 1.008.166 1.859.5 2.552.337.693.789 1.218 1.358 1.574.571.356 1.21.534 1.914.534a3.52 3.52 0 001.909-.534c.572-.356 1.025-.88 1.358-1.574.337-.693.506-1.544.506-2.551zM279.831 44V32.364h1.341v4.295h.114c.098-.151.234-.345.409-.58.178-.238.431-.45.761-.636.333-.19.784-.284 1.352-.284.735 0 1.383.184 1.943.551.561.368.999.889 1.313 1.563.314.674.472 1.47.472 2.386 0 .924-.158 1.726-.472 2.404-.314.674-.75 1.197-1.307 1.568-.557.367-1.199.55-1.926.55-.561 0-1.01-.092-1.347-.278-.337-.189-.596-.403-.778-.642a8.362 8.362 0 01-.42-.602h-.16V44h-1.295zm1.318-4.364c0 .66.097 1.24.29 1.745.193.5.475.892.847 1.176.371.28.825.42 1.363.42.561 0 1.029-.147 1.404-.443.378-.3.662-.7.852-1.204a4.73 4.73 0 00.29-1.694 4.6 4.6 0 00-.284-1.659c-.186-.496-.468-.888-.847-1.176-.375-.291-.847-.437-1.415-.437-.545 0-1.004.138-1.375.414-.371.273-.651.656-.841 1.148-.189.489-.284 1.059-.284 1.71zm15.262-4.363L293.183 44h-1.363l-3.228-8.727h1.455l2.409 6.954h.091l2.409-6.954h1.455zM298.18 44v-8.727h1.341V44h-1.341zm.682-10.182a.953.953 0 01-.676-.267.856.856 0 01-.278-.642c0-.25.092-.464.278-.642a.953.953 0 01.676-.267c.262 0 .485.089.671.267a.851.851 0 01.284.642c0 .25-.095.464-.284.642a.934.934 0 01-.671.267zm12.615 3.739v1.25h-5.091v-1.25h5.091zm7.041-5.193h1.682l3.955 9.659h.136l3.955-9.66h1.682V44h-1.319v-8.84h-.113L324.859 44h-1.272l-3.637-8.84h-.113V44h-1.319V32.364zm16.621 11.84a3.54 3.54 0 01-1.505-.312 2.582 2.582 0 01-1.074-.915c-.265-.401-.398-.886-.398-1.454 0-.5.098-.906.295-1.216a2.09 2.09 0 01.79-.739c.33-.178.693-.31 1.091-.398.402-.09.805-.162 1.21-.215.531-.069.961-.12 1.29-.154.333-.038.576-.1.727-.187.156-.087.233-.239.233-.455v-.045c0-.561-.153-.997-.46-1.307-.303-.31-.763-.466-1.381-.466-.64 0-1.142.14-1.505.42-.364.28-.62.58-.767.898l-1.273-.454c.227-.53.53-.944.909-1.24a3.419 3.419 0 011.25-.624 5.196 5.196 0 011.341-.182c.28 0 .602.034.966.102.367.065.721.2 1.062.404.345.204.631.513.858.926.228.413.341.966.341 1.659V44h-1.341v-1.182h-.068c-.091.19-.242.392-.454.608-.213.216-.495.4-.847.551-.352.152-.782.228-1.29.228zm.205-1.204c.53 0 .977-.104 1.341-.313a2.124 2.124 0 001.113-1.846v-1.227c-.057.068-.182.13-.375.187a6.29 6.29 0 01-.659.142 30.27 30.27 0 01-1.284.17 5.19 5.19 0 00-.977.222 1.681 1.681 0 00-.727.45c-.182.196-.273.465-.273.806 0 .466.172.818.517 1.057.348.235.79.352 1.324.352zm6.243 1v-8.727h1.341V44h-1.341zm.681-10.182a.954.954 0 01-.676-.267.86.86 0 01-.278-.642.86.86 0 01.278-.642.955.955 0 01.676-.267c.262 0 .485.089.671.267a.851.851 0 01.284.642c0 .25-.095.464-.284.642a.934.934 0 01-.671.267zm4.456 4.932V44h-1.34v-8.727h1.295v1.363h.114c.204-.443.515-.799.931-1.068.417-.273.955-.409 1.614-.409.591 0 1.108.121 1.551.364a2.45 2.45 0 011.034 1.09c.247.486.37 1.1.37 1.842V44h-1.341v-5.455c0-.685-.178-1.22-.534-1.602-.356-.386-.845-.58-1.466-.58a2.34 2.34 0 00-1.148.279 1.994 1.994 0 00-.79.813c-.193.356-.29.787-.29 1.295zm9.201-6.386v1.022c0 .311-.057.642-.171.995-.11.348-.272.687-.488 1.017-.212.325-.47.61-.773.852l-.727-.59c.238-.342.445-.696.619-1.063.178-.372.267-.767.267-1.188v-1.045h1.273z" fill="#535353"/>
    </g>
  </g>
  <defs>
    <clipPath id="X5KJnxNj_rkLb">
      <rect x="8" y="4" width="688" height="76" rx="15" fill="#fff"/>
    </clipPath>
    <clipPath id="X5KJnxNj_rkLc">
      <path fill="#fff" transform="translate(27 27)" d="M0 0h30v34.286H0z"/>
    </clipPath>
    <filter id="X5KJnxNj_rkLa" x="0" y="0" width="704" height="92" filterUnits="userSpaceOnUse" color-interpolation-filters="sRGB">
      <feFlood flood-opacity="0" result="BackgroundImageFix"/>
      <feColorMatrix in="SourceAlpha" type="matrix" values="0 0 0 0 0 0 0 0 0 0 0 0 0 0 0 0 0 0 127 0" result="hardAlpha"/>
      <feOffset dy="4"/>
      <feGaussianBlur stdDeviation="4"/>
      <feComposite in2="hardAlpha" operator="out"/>
      <feColorMatrix type="matrix" values="0 0 0 0 0 0 0 0 0 0 0 0 0 0 0 0 0 0 0.2 0"/>
      <feBlend mode="normal" in2="BackgroundImageFix" result="effect1_dropShadow_518_4617"/>
      <feBlend mode="normal" in="SourceGraphic" in2="effect1_dropShadow_518_4617" result="shape"/>
    </filter>
  </defs>
</svg>
